G04*
G04 #@! TF.GenerationSoftware,Altium Limited,Altium Designer,25.4.2 (15)*
G04*
G04 Layer_Color=32896*
%FSLAX25Y25*%
%MOIN*%
G70*
G04*
G04 #@! TF.SameCoordinates,6D7273DC-0862-4ADB-9A81-04C38C25D803*
G04*
G04*
G04 #@! TF.FilePolarity,Positive*
G04*
G01*
G75*
%ADD11C,0.00600*%
%ADD77C,0.01000*%
D11*
X29800Y99900D02*
X270000D01*
X29700Y99800D02*
X29800Y99900D01*
X29700Y90000D02*
Y99800D01*
Y90000D02*
X268900Y90000D01*
X270000Y90000D02*
Y99900D01*
X268900Y90000D02*
X270000D01*
X268900Y0D02*
X270000D01*
Y9900D01*
X29700Y0D02*
X268900Y-0D01*
X29700Y0D02*
Y9800D01*
X29800Y9900D01*
X270000D01*
X267000Y72301D02*
X265001Y74300D01*
X263001Y72301D01*
X265001Y70301D02*
Y67636D01*
Y66303D02*
Y63637D01*
Y62304D02*
Y59638D01*
X267000Y58305D02*
X263001D01*
Y56306D01*
X263668Y55639D01*
X265001D01*
X265667Y56306D01*
Y58305D01*
X263001Y54306D02*
Y52974D01*
Y53640D01*
X267000D01*
Y54306D01*
Y52974D01*
Y50974D02*
X263001D01*
X267000Y48308D01*
X263001D01*
X267000Y46975D02*
Y45643D01*
Y46309D01*
X263001D01*
X263668Y46975D01*
X265001Y43643D02*
Y40977D01*
Y39645D02*
Y36979D01*
Y35646D02*
Y32980D01*
X267000Y31647D02*
X265001Y29648D01*
X263001Y31647D01*
X182500Y37399D02*
Y33400D01*
Y35399D01*
X179834D01*
Y37399D01*
Y33400D01*
X178501D02*
Y36066D01*
X177168Y37399D01*
X175836Y36066D01*
Y33400D01*
Y35399D01*
X178501D01*
X174503Y37399D02*
Y34733D01*
X173170Y33400D01*
X171837Y34733D01*
Y37399D01*
X167838D02*
X170504D01*
Y33400D01*
X167838D01*
X170504Y35399D02*
X169171D01*
X159841Y37399D02*
X162506D01*
Y35399D01*
X161174D01*
X162506D01*
Y33400D01*
X158508Y37399D02*
Y34066D01*
X157841Y33400D01*
X156508D01*
X155842Y34066D01*
Y37399D01*
X154509Y33400D02*
Y37399D01*
X151843Y33400D01*
Y37399D01*
X146512D02*
Y34733D01*
X145179Y33400D01*
X143846Y34733D01*
Y37399D01*
X142513Y33400D02*
X141180D01*
X141847D01*
Y37399D01*
X142513Y36732D01*
X139181Y37399D02*
X137848D01*
X138514D01*
Y33400D01*
X139181D01*
X137848D01*
X135848D02*
X134516D01*
X135182D01*
Y37399D01*
X135848Y36732D01*
X180567Y40400D02*
X181900Y41733D01*
Y43066D01*
X180567Y44399D01*
X175902Y43732D02*
X176568Y44399D01*
X177901D01*
X178568Y43732D01*
Y41066D01*
X177901Y40400D01*
X176568D01*
X175902Y41066D01*
X174569Y40400D02*
X173236Y41733D01*
Y43066D01*
X174569Y44399D01*
X168571Y40400D02*
X171237D01*
X168571Y43066D01*
Y43732D01*
X169237Y44399D01*
X170570D01*
X171237Y43732D01*
X167238D02*
X166572Y44399D01*
X165239D01*
X164572Y43732D01*
Y41066D01*
X165239Y40400D01*
X166572D01*
X167238Y41066D01*
Y43732D01*
X160574Y40400D02*
X163239D01*
X160574Y43066D01*
Y43732D01*
X161240Y44399D01*
X162573D01*
X163239Y43732D01*
X156575Y44399D02*
X159241D01*
Y42399D01*
X157908Y43066D01*
X157241D01*
X156575Y42399D01*
Y41066D01*
X157241Y40400D01*
X158574D01*
X159241Y41066D01*
X151243Y40400D02*
Y43066D01*
X149910Y44399D01*
X148577Y43066D01*
Y40400D01*
Y42399D01*
X151243D01*
X147245Y44399D02*
Y40400D01*
X144579D01*
X143246D02*
Y43066D01*
X141913Y44399D01*
X140580Y43066D01*
Y40400D01*
Y42399D01*
X143246D01*
X139247Y40400D02*
Y44399D01*
X136581Y40400D01*
Y44399D01*
X263368Y26000D02*
X262701Y25333D01*
Y24001D01*
X263368Y23334D01*
X264034D01*
X264701Y24001D01*
Y24667D01*
Y24001D01*
X265367Y23334D01*
X266034D01*
X266700Y24001D01*
Y25333D01*
X266034Y26000D01*
X262701Y22001D02*
X265367D01*
X266700Y20668D01*
X265367Y19335D01*
X262701D01*
X263368Y18003D02*
X262701Y17336D01*
Y16003D01*
X263368Y15337D01*
X264034D01*
X264701Y16003D01*
Y16670D01*
Y16003D01*
X265367Y15337D01*
X266034D01*
X266700Y16003D01*
Y17336D01*
X266034Y18003D01*
X33368Y23334D02*
X32701Y24001D01*
Y25333D01*
X33368Y26000D01*
X36034D01*
X36700Y25333D01*
Y24001D01*
X36034Y23334D01*
X34701D01*
Y24667D01*
X36700Y22001D02*
X32701D01*
X36700Y19335D01*
X32701D01*
Y18003D02*
X36700D01*
Y16003D01*
X36034Y15337D01*
X33368D01*
X32701Y16003D01*
Y18003D01*
X42701Y26000D02*
Y24667D01*
Y25333D01*
X46700D01*
Y26000D01*
Y24667D01*
X42701Y20668D02*
Y22001D01*
X43368Y22668D01*
X46034D01*
X46700Y22001D01*
Y20668D01*
X46034Y20002D01*
X43368D01*
X42701Y20668D01*
X46700Y16670D02*
X42701D01*
X44701Y18669D01*
Y16003D01*
X42701Y14670D02*
Y12004D01*
X43368D01*
X46034Y14670D01*
X46700D01*
X52701Y26000D02*
Y24667D01*
Y25333D01*
X56700D01*
Y26000D01*
Y24667D01*
X52701Y20668D02*
Y22001D01*
X53368Y22668D01*
X56034D01*
X56700Y22001D01*
Y20668D01*
X56034Y20002D01*
X53368D01*
X52701Y20668D01*
X56700Y16670D02*
X52701D01*
X54701Y18669D01*
Y16003D01*
X53368Y14670D02*
X52701Y14004D01*
Y12671D01*
X53368Y12004D01*
X54034D01*
X54701Y12671D01*
X55367Y12004D01*
X56034D01*
X56700Y12671D01*
Y14004D01*
X56034Y14670D01*
X55367D01*
X54701Y14004D01*
X54034Y14670D01*
X53368D01*
X54701Y14004D02*
Y12671D01*
X62701Y26000D02*
X66034D01*
X66700Y25333D01*
Y24001D01*
X66034Y23334D01*
X62701D01*
X63368Y19335D02*
X62701Y20002D01*
Y21335D01*
X63368Y22001D01*
X64034D01*
X64701Y21335D01*
Y20002D01*
X65367Y19335D01*
X66034D01*
X66700Y20002D01*
Y21335D01*
X66034Y22001D01*
X62701Y18003D02*
X66700D01*
Y16003D01*
X66034Y15337D01*
X65367D01*
X64701Y16003D01*
Y18003D01*
Y16003D01*
X64034Y15337D01*
X63368D01*
X62701Y16003D01*
Y18003D01*
X64701Y14004D02*
Y11338D01*
X82701Y26000D02*
Y24667D01*
Y25333D01*
X86700D01*
Y26000D01*
Y24667D01*
X82701Y20668D02*
Y22001D01*
X83368Y22668D01*
X86034D01*
X86700Y22001D01*
Y20668D01*
X86034Y20002D01*
X83368D01*
X82701Y20668D01*
X86700Y16003D02*
Y18669D01*
X84034Y16003D01*
X83368D01*
X82701Y16670D01*
Y18003D01*
X83368Y18669D01*
X86700Y14670D02*
Y13337D01*
Y14004D01*
X82701D01*
X83368Y14670D01*
X92701Y26000D02*
Y24667D01*
Y25333D01*
X96700D01*
Y26000D01*
Y24667D01*
X92701Y20668D02*
Y22001D01*
X93368Y22668D01*
X96034D01*
X96700Y22001D01*
Y20668D01*
X96034Y20002D01*
X93368D01*
X92701Y20668D01*
X96700Y16003D02*
Y18669D01*
X94034Y16003D01*
X93368D01*
X92701Y16670D01*
Y18003D01*
X93368Y18669D01*
X92701Y12004D02*
X93368Y13337D01*
X94701Y14670D01*
X96034D01*
X96700Y14004D01*
Y12671D01*
X96034Y12004D01*
X95367D01*
X94701Y12671D01*
Y14670D01*
X102701Y26000D02*
Y24667D01*
Y25333D01*
X106700D01*
Y26000D01*
Y24667D01*
X102701Y20668D02*
Y22001D01*
X103368Y22668D01*
X106034D01*
X106700Y22001D01*
Y20668D01*
X106034Y20002D01*
X103368D01*
X102701Y20668D01*
X103368Y18669D02*
X102701Y18003D01*
Y16670D01*
X103368Y16003D01*
X104034D01*
X104701Y16670D01*
Y17336D01*
Y16670D01*
X105367Y16003D01*
X106034D01*
X106700Y16670D01*
Y18003D01*
X106034Y18669D01*
X103368Y14670D02*
X102701Y14004D01*
Y12671D01*
X103368Y12004D01*
X104034D01*
X104701Y12671D01*
Y13337D01*
Y12671D01*
X105367Y12004D01*
X106034D01*
X106700Y12671D01*
Y14004D01*
X106034Y14670D01*
X112701Y26000D02*
Y24667D01*
Y25333D01*
X116700D01*
Y26000D01*
Y24667D01*
X112701Y20668D02*
Y22001D01*
X113368Y22668D01*
X116033D01*
X116700Y22001D01*
Y20668D01*
X116033Y20002D01*
X113368D01*
X112701Y20668D01*
X113368Y18669D02*
X112701Y18003D01*
Y16670D01*
X113368Y16003D01*
X114034D01*
X114701Y16670D01*
Y17336D01*
Y16670D01*
X115367Y16003D01*
X116033D01*
X116700Y16670D01*
Y18003D01*
X116033Y18669D01*
X116700Y12671D02*
X112701D01*
X114701Y14670D01*
Y12004D01*
X72701Y26000D02*
X76034D01*
X76700Y25333D01*
Y24001D01*
X76034Y23334D01*
X72701D01*
X73368Y19335D02*
X72701Y20002D01*
Y21335D01*
X73368Y22001D01*
X74034D01*
X74701Y21335D01*
Y20002D01*
X75367Y19335D01*
X76034D01*
X76700Y20002D01*
Y21335D01*
X76034Y22001D01*
X72701Y18003D02*
X76700D01*
Y16003D01*
X76034Y15337D01*
X75367D01*
X74701Y16003D01*
Y18003D01*
Y16003D01*
X74034Y15337D01*
X73368D01*
X72701Y16003D01*
Y18003D01*
X74701Y14004D02*
Y11338D01*
X73368Y12671D02*
X76034D01*
X132701Y26000D02*
Y24667D01*
Y25333D01*
X136700D01*
Y26000D01*
Y24667D01*
X132701Y20668D02*
Y22001D01*
X133368Y22668D01*
X136033D01*
X136700Y22001D01*
Y20668D01*
X136033Y20002D01*
X133368D01*
X132701Y20668D01*
X133368Y18669D02*
X132701Y18003D01*
Y16670D01*
X133368Y16003D01*
X134034D01*
X134701Y16670D01*
Y17336D01*
Y16670D01*
X135367Y16003D01*
X136033D01*
X136700Y16670D01*
Y18003D01*
X136033Y18669D01*
X132701Y12004D02*
X133368Y13337D01*
X134701Y14670D01*
X136033D01*
X136700Y14004D01*
Y12671D01*
X136033Y12004D01*
X135367D01*
X134701Y12671D01*
Y14670D01*
X142701Y26000D02*
Y24667D01*
Y25333D01*
X146700D01*
Y26000D01*
Y24667D01*
X142701Y20668D02*
Y22001D01*
X143368Y22668D01*
X146034D01*
X146700Y22001D01*
Y20668D01*
X146034Y20002D01*
X143368D01*
X142701Y20668D01*
X143368Y18669D02*
X142701Y18003D01*
Y16670D01*
X143368Y16003D01*
X144034D01*
X144701Y16670D01*
Y17336D01*
Y16670D01*
X145367Y16003D01*
X146034D01*
X146700Y16670D01*
Y18003D01*
X146034Y18669D01*
X142701Y14670D02*
Y12004D01*
X143368D01*
X146034Y14670D01*
X146700D01*
X152701Y26000D02*
Y24667D01*
Y25333D01*
X156700D01*
Y26000D01*
Y24667D01*
X152701Y20668D02*
Y22001D01*
X153368Y22668D01*
X156034D01*
X156700Y22001D01*
Y20668D01*
X156034Y20002D01*
X153368D01*
X152701Y20668D01*
X153368Y18669D02*
X152701Y18003D01*
Y16670D01*
X153368Y16003D01*
X154034D01*
X154701Y16670D01*
Y17336D01*
Y16670D01*
X155367Y16003D01*
X156034D01*
X156700Y16670D01*
Y18003D01*
X156034Y18669D01*
X153368Y14670D02*
X152701Y14004D01*
Y12671D01*
X153368Y12004D01*
X154034D01*
X154701Y12671D01*
X155367Y12004D01*
X156034D01*
X156700Y12671D01*
Y14004D01*
X156034Y14670D01*
X155367D01*
X154701Y14004D01*
X154034Y14670D01*
X153368D01*
X154701Y14004D02*
Y12671D01*
X162701Y26000D02*
Y24667D01*
Y25333D01*
X166700D01*
Y26000D01*
Y24667D01*
X162701Y20668D02*
Y22001D01*
X163368Y22668D01*
X166033D01*
X166700Y22001D01*
Y20668D01*
X166033Y20002D01*
X163368D01*
X162701Y20668D01*
X163368Y18669D02*
X162701Y18003D01*
Y16670D01*
X163368Y16003D01*
X164034D01*
X164701Y16670D01*
Y17336D01*
Y16670D01*
X165367Y16003D01*
X166033D01*
X166700Y16670D01*
Y18003D01*
X166033Y18669D01*
Y14670D02*
X166700Y14004D01*
Y12671D01*
X166033Y12004D01*
X163368D01*
X162701Y12671D01*
Y14004D01*
X163368Y14670D01*
X164034D01*
X164701Y14004D01*
Y12004D01*
X122701Y26000D02*
Y24667D01*
Y25333D01*
X126700D01*
Y26000D01*
Y24667D01*
X122701Y20668D02*
Y22001D01*
X123368Y22668D01*
X126033D01*
X126700Y22001D01*
Y20668D01*
X126033Y20002D01*
X123368D01*
X122701Y20668D01*
X123368Y18669D02*
X122701Y18003D01*
Y16670D01*
X123368Y16003D01*
X124034D01*
X124701Y16670D01*
Y17336D01*
Y16670D01*
X125367Y16003D01*
X126033D01*
X126700Y16670D01*
Y18003D01*
X126033Y18669D01*
X122701Y12004D02*
Y14670D01*
X124701D01*
X124034Y13337D01*
Y12671D01*
X124701Y12004D01*
X126033D01*
X126700Y12671D01*
Y14004D01*
X126033Y14670D01*
X182701Y26000D02*
Y24667D01*
Y25333D01*
X186700D01*
Y26000D01*
Y24667D01*
X182701Y20668D02*
Y22001D01*
X183368Y22668D01*
X186033D01*
X186700Y22001D01*
Y20668D01*
X186033Y20002D01*
X183368D01*
X182701Y20668D01*
X186700Y16670D02*
X182701D01*
X184701Y18669D01*
Y16003D01*
X186700Y14670D02*
Y13337D01*
Y14004D01*
X182701D01*
X183368Y14670D01*
X192701Y26000D02*
Y24667D01*
Y25333D01*
X196700D01*
Y26000D01*
Y24667D01*
X192701Y20668D02*
Y22001D01*
X193368Y22668D01*
X196034D01*
X196700Y22001D01*
Y20668D01*
X196034Y20002D01*
X193368D01*
X192701Y20668D01*
X196700Y16670D02*
X192701D01*
X194701Y18669D01*
Y16003D01*
X196700Y12004D02*
Y14670D01*
X194034Y12004D01*
X193368D01*
X192701Y12671D01*
Y14004D01*
X193368Y14670D01*
X202701Y26000D02*
Y23334D01*
Y24667D01*
X206700D01*
X202701Y22001D02*
X206700Y19335D01*
X202701D02*
X206700Y22001D01*
X202701Y18003D02*
X206700D01*
Y16003D01*
X206034Y15337D01*
X203368D01*
X202701Y16003D01*
Y18003D01*
X216700Y26000D02*
X212701D01*
Y24001D01*
X213368Y23334D01*
X214701D01*
X215367Y24001D01*
Y26000D01*
Y24667D02*
X216700Y23334D01*
X212701Y22001D02*
X216700Y19335D01*
X212701D02*
X216700Y22001D01*
X212701Y18003D02*
X216700D01*
Y16003D01*
X216034Y15337D01*
X213368D01*
X212701Y16003D01*
Y18003D01*
X172701Y26000D02*
Y24667D01*
Y25333D01*
X176700D01*
Y26000D01*
Y24667D01*
X172701Y20668D02*
Y22001D01*
X173368Y22668D01*
X176033D01*
X176700Y22001D01*
Y20668D01*
X176033Y20002D01*
X173368D01*
X172701Y20668D01*
X176700Y16670D02*
X172701D01*
X174701Y18669D01*
Y16003D01*
X173368Y14670D02*
X172701Y14004D01*
Y12671D01*
X173368Y12004D01*
X176033D01*
X176700Y12671D01*
Y14004D01*
X176033Y14670D01*
X173368D01*
X222701Y26000D02*
Y24667D01*
Y25333D01*
X226700D01*
Y26000D01*
Y24667D01*
X222701Y20668D02*
Y22001D01*
X223368Y22668D01*
X226034D01*
X226700Y22001D01*
Y20668D01*
X226034Y20002D01*
X223368D01*
X222701Y20668D01*
X226700Y16670D02*
X222701D01*
X224701Y18669D01*
Y16003D01*
X222701Y12004D02*
Y14670D01*
X224701D01*
X224034Y13337D01*
Y12671D01*
X224701Y12004D01*
X226034D01*
X226700Y12671D01*
Y14004D01*
X226034Y14670D01*
X253368Y23334D02*
X252701Y24001D01*
Y25333D01*
X253368Y26000D01*
X256034D01*
X256700Y25333D01*
Y24001D01*
X256034Y23334D01*
X254701D01*
Y24667D01*
X256700Y22001D02*
X252701D01*
X256700Y19335D01*
X252701D01*
Y18003D02*
X256700D01*
Y16003D01*
X256034Y15337D01*
X253368D01*
X252701Y16003D01*
Y18003D01*
X242701Y23334D02*
Y26000D01*
X246700D01*
Y23334D01*
X244701Y26000D02*
Y24667D01*
X246700Y22001D02*
X242701D01*
X246700Y19335D01*
X242701D01*
X232701Y26000D02*
Y24667D01*
Y25333D01*
X236700D01*
Y26000D01*
Y24667D01*
X232701Y20668D02*
Y22001D01*
X233368Y22668D01*
X236034D01*
X236700Y22001D01*
Y20668D01*
X236034Y20002D01*
X233368D01*
X232701Y20668D01*
X236700Y16670D02*
X232701D01*
X234701Y18669D01*
Y16003D01*
X232701Y12004D02*
X233368Y13337D01*
X234701Y14670D01*
X236034D01*
X236700Y14004D01*
Y12671D01*
X236034Y12004D01*
X235367D01*
X234701Y12671D01*
Y14670D01*
X63101Y88200D02*
Y86867D01*
Y87534D01*
X67100D01*
Y88200D01*
Y86867D01*
X63101Y82868D02*
Y84201D01*
X63768Y84868D01*
X66434D01*
X67100Y84201D01*
Y82868D01*
X66434Y82202D01*
X63768D01*
X63101Y82868D01*
X67100Y80869D02*
Y79536D01*
Y80203D01*
X63101D01*
X63768Y80869D01*
Y77537D02*
X63101Y76870D01*
Y75537D01*
X63768Y74871D01*
X64434D01*
X65101Y75537D01*
X65767Y74871D01*
X66434D01*
X67100Y75537D01*
Y76870D01*
X66434Y77537D01*
X65767D01*
X65101Y76870D01*
X64434Y77537D01*
X63768D01*
X65101Y76870D02*
Y75537D01*
X53101Y85534D02*
Y88200D01*
X55101D01*
X54434Y86867D01*
Y86201D01*
X55101Y85534D01*
X56434D01*
X57100Y86201D01*
Y87534D01*
X56434Y88200D01*
X53101Y84201D02*
X55767D01*
X57100Y82868D01*
X55767Y81536D01*
X53101D01*
X43768Y85534D02*
X43101Y86201D01*
Y87534D01*
X43768Y88200D01*
X46434D01*
X47100Y87534D01*
Y86201D01*
X46434Y85534D01*
X45101D01*
Y86867D01*
X47100Y84201D02*
X43101D01*
X47100Y81536D01*
X43101D01*
Y80203D02*
X47100D01*
Y78203D01*
X46434Y77537D01*
X43768D01*
X43101Y78203D01*
Y80203D01*
X37100Y88200D02*
X33101D01*
X37100Y85534D01*
X33101D01*
X33768Y81536D02*
X33101Y82202D01*
Y83535D01*
X33768Y84201D01*
X36434D01*
X37100Y83535D01*
Y82202D01*
X36434Y81536D01*
X113101Y88200D02*
Y86867D01*
Y87534D01*
X117100D01*
Y88200D01*
Y86867D01*
X113101Y82868D02*
Y84201D01*
X113768Y84868D01*
X116434D01*
X117100Y84201D01*
Y82868D01*
X116434Y82202D01*
X113768D01*
X113101Y82868D01*
X117100Y80869D02*
Y79536D01*
Y80203D01*
X113101D01*
X113768Y80869D01*
Y77537D02*
X113101Y76870D01*
Y75537D01*
X113768Y74871D01*
X114434D01*
X115101Y75537D01*
Y76204D01*
Y75537D01*
X115767Y74871D01*
X116434D01*
X117100Y75537D01*
Y76870D01*
X116434Y77537D01*
X103101Y88200D02*
Y86867D01*
Y87534D01*
X107100D01*
Y88200D01*
Y86867D01*
X103101Y82868D02*
Y84201D01*
X103768Y84868D01*
X106433D01*
X107100Y84201D01*
Y82868D01*
X106433Y82202D01*
X103768D01*
X103101Y82868D01*
X107100Y80869D02*
Y79536D01*
Y80203D01*
X103101D01*
X103768Y80869D01*
X107100Y75537D02*
X103101D01*
X105101Y77537D01*
Y74871D01*
X93101Y88200D02*
Y86867D01*
Y87534D01*
X97100D01*
Y88200D01*
Y86867D01*
X93101Y82868D02*
Y84201D01*
X93768Y84868D01*
X96434D01*
X97100Y84201D01*
Y82868D01*
X96434Y82202D01*
X93768D01*
X93101Y82868D01*
X97100Y80869D02*
Y79536D01*
Y80203D01*
X93101D01*
X93768Y80869D01*
X93101Y74871D02*
Y77537D01*
X95101D01*
X94434Y76204D01*
Y75537D01*
X95101Y74871D01*
X96434D01*
X97100Y75537D01*
Y76870D01*
X96434Y77537D01*
X83101Y88200D02*
Y86867D01*
Y87534D01*
X87100D01*
Y88200D01*
Y86867D01*
X83101Y82868D02*
Y84201D01*
X83768Y84868D01*
X86434D01*
X87100Y84201D01*
Y82868D01*
X86434Y82202D01*
X83768D01*
X83101Y82868D01*
X87100Y80869D02*
Y79536D01*
Y80203D01*
X83101D01*
X83768Y80869D01*
X83101Y74871D02*
X83768Y76204D01*
X85101Y77537D01*
X86434D01*
X87100Y76870D01*
Y75537D01*
X86434Y74871D01*
X85767D01*
X85101Y75537D01*
Y77537D01*
X73101Y88200D02*
Y86867D01*
Y87534D01*
X77100D01*
Y88200D01*
Y86867D01*
X73101Y82868D02*
Y84201D01*
X73768Y84868D01*
X76434D01*
X77100Y84201D01*
Y82868D01*
X76434Y82202D01*
X73768D01*
X73101Y82868D01*
X77100Y80869D02*
Y79536D01*
Y80203D01*
X73101D01*
X73768Y80869D01*
X73101Y77537D02*
Y74871D01*
X73768D01*
X76434Y77537D01*
X77100D01*
X163101Y88200D02*
Y86867D01*
Y87534D01*
X167100D01*
Y88200D01*
Y86867D01*
X163101Y82868D02*
Y84201D01*
X163768Y84868D01*
X166434D01*
X167100Y84201D01*
Y82868D01*
X166434Y82202D01*
X163768D01*
X163101Y82868D01*
X163768Y80869D02*
X163101Y80203D01*
Y78870D01*
X163768Y78203D01*
X164434D01*
X165101Y78870D01*
X165767Y78203D01*
X166434D01*
X167100Y78870D01*
Y80203D01*
X166434Y80869D01*
X165767D01*
X165101Y80203D01*
X164434Y80869D01*
X163768D01*
X165101Y80203D02*
Y78870D01*
X153101Y88200D02*
Y86867D01*
Y87534D01*
X157100D01*
Y88200D01*
Y86867D01*
X153101Y82868D02*
Y84201D01*
X153768Y84868D01*
X156433D01*
X157100Y84201D01*
Y82868D01*
X156433Y82202D01*
X153768D01*
X153101Y82868D01*
X156433Y80869D02*
X157100Y80203D01*
Y78870D01*
X156433Y78203D01*
X153768D01*
X153101Y78870D01*
Y80203D01*
X153768Y80869D01*
X154434D01*
X155101Y80203D01*
Y78203D01*
X143101Y88200D02*
Y86867D01*
Y87534D01*
X147100D01*
Y88200D01*
Y86867D01*
X143101Y82868D02*
Y84201D01*
X143768Y84868D01*
X146433D01*
X147100Y84201D01*
Y82868D01*
X146433Y82202D01*
X143768D01*
X143101Y82868D01*
X147100Y80869D02*
Y79536D01*
Y80203D01*
X143101D01*
X143768Y80869D01*
Y77537D02*
X143101Y76870D01*
Y75537D01*
X143768Y74871D01*
X146433D01*
X147100Y75537D01*
Y76870D01*
X146433Y77537D01*
X143768D01*
X133101Y88200D02*
Y86867D01*
Y87534D01*
X137100D01*
Y88200D01*
Y86867D01*
X133101Y82868D02*
Y84201D01*
X133768Y84868D01*
X136433D01*
X137100Y84201D01*
Y82868D01*
X136433Y82202D01*
X133768D01*
X133101Y82868D01*
X137100Y80869D02*
Y79536D01*
Y80203D01*
X133101D01*
X133768Y80869D01*
X137100Y77537D02*
Y76204D01*
Y76870D01*
X133101D01*
X133768Y77537D01*
X123101Y88200D02*
Y86867D01*
Y87534D01*
X127100D01*
Y88200D01*
Y86867D01*
X123101Y82868D02*
Y84201D01*
X123768Y84868D01*
X126434D01*
X127100Y84201D01*
Y82868D01*
X126434Y82202D01*
X123768D01*
X123101Y82868D01*
X127100Y80869D02*
Y79536D01*
Y80203D01*
X123101D01*
X123768Y80869D01*
X127100Y74871D02*
Y77537D01*
X124434Y74871D01*
X123768D01*
X123101Y75537D01*
Y76870D01*
X123768Y77537D01*
X213101Y88200D02*
Y86867D01*
Y87534D01*
X217100D01*
Y88200D01*
Y86867D01*
X213101Y82868D02*
Y84201D01*
X213768Y84868D01*
X216434D01*
X217100Y84201D01*
Y82868D01*
X216434Y82202D01*
X213768D01*
X213101Y82868D01*
X213768Y80869D02*
X213101Y80203D01*
Y78870D01*
X213768Y78203D01*
X214434D01*
X215101Y78870D01*
Y79536D01*
Y78870D01*
X215767Y78203D01*
X216434D01*
X217100Y78870D01*
Y80203D01*
X216434Y80869D01*
X203101Y88200D02*
Y86867D01*
Y87534D01*
X207100D01*
Y88200D01*
Y86867D01*
X203101Y82868D02*
Y84201D01*
X203768Y84868D01*
X206434D01*
X207100Y84201D01*
Y82868D01*
X206434Y82202D01*
X203768D01*
X203101Y82868D01*
X207100Y78870D02*
X203101D01*
X205101Y80869D01*
Y78203D01*
X193101Y88200D02*
Y86867D01*
Y87534D01*
X197100D01*
Y88200D01*
Y86867D01*
X193101Y82868D02*
Y84201D01*
X193768Y84868D01*
X196433D01*
X197100Y84201D01*
Y82868D01*
X196433Y82202D01*
X193768D01*
X193101Y82868D01*
Y78203D02*
Y80869D01*
X195101D01*
X194434Y79536D01*
Y78870D01*
X195101Y78203D01*
X196433D01*
X197100Y78870D01*
Y80203D01*
X196433Y80869D01*
X183101Y88200D02*
Y86867D01*
Y87534D01*
X187100D01*
Y88200D01*
Y86867D01*
X183101Y82868D02*
Y84201D01*
X183768Y84868D01*
X186433D01*
X187100Y84201D01*
Y82868D01*
X186433Y82202D01*
X183768D01*
X183101Y82868D01*
Y78203D02*
X183768Y79536D01*
X185101Y80869D01*
X186433D01*
X187100Y80203D01*
Y78870D01*
X186433Y78203D01*
X185767D01*
X185101Y78870D01*
Y80869D01*
X173101Y88200D02*
Y86867D01*
Y87534D01*
X177100D01*
Y88200D01*
Y86867D01*
X173101Y82868D02*
Y84201D01*
X173768Y84868D01*
X176434D01*
X177100Y84201D01*
Y82868D01*
X176434Y82202D01*
X173768D01*
X173101Y82868D01*
Y80869D02*
Y78203D01*
X173768D01*
X176434Y80869D01*
X177100D01*
X223101Y88200D02*
Y86867D01*
Y87534D01*
X227100D01*
Y88200D01*
Y86867D01*
X223101Y82868D02*
Y84201D01*
X223768Y84868D01*
X226434D01*
X227100Y84201D01*
Y82868D01*
X226434Y82202D01*
X223768D01*
X223101Y82868D01*
X227100Y78203D02*
Y80869D01*
X224434Y78203D01*
X223768D01*
X223101Y78870D01*
Y80203D01*
X223768Y80869D01*
X233101Y88200D02*
Y86867D01*
Y87534D01*
X237100D01*
Y88200D01*
Y86867D01*
X233101Y82868D02*
Y84201D01*
X233768Y84868D01*
X236434D01*
X237100Y84201D01*
Y82868D01*
X236434Y82202D01*
X233768D01*
X233101Y82868D01*
X237100Y80869D02*
Y79536D01*
Y80203D01*
X233101D01*
X233768Y80869D01*
X243101Y88200D02*
Y86867D01*
Y87534D01*
X247100D01*
Y88200D01*
Y86867D01*
X243101Y82868D02*
Y84201D01*
X243768Y84868D01*
X246434D01*
X247100Y84201D01*
Y82868D01*
X246434Y82202D01*
X243768D01*
X243101Y82868D01*
X243768Y80869D02*
X243101Y80203D01*
Y78870D01*
X243768Y78203D01*
X246434D01*
X247100Y78870D01*
Y80203D01*
X246434Y80869D01*
X243768D01*
X253768Y88200D02*
X253101Y87534D01*
Y86201D01*
X253768Y85534D01*
X254434D01*
X255101Y86201D01*
Y86867D01*
Y86201D01*
X255767Y85534D01*
X256434D01*
X257100Y86201D01*
Y87534D01*
X256434Y88200D01*
X253101Y84201D02*
X255767D01*
X257100Y82868D01*
X255767Y81536D01*
X253101D01*
X253768Y80203D02*
X253101Y79536D01*
Y78203D01*
X253768Y77537D01*
X254434D01*
X255101Y78203D01*
Y78870D01*
Y78203D01*
X255767Y77537D01*
X256434D01*
X257100Y78203D01*
Y79536D01*
X256434Y80203D01*
X263768Y85534D02*
X263101Y86201D01*
Y87534D01*
X263768Y88200D01*
X266434D01*
X267100Y87534D01*
Y86201D01*
X266434Y85534D01*
X265101D01*
Y86867D01*
X267100Y84201D02*
X263101D01*
X267100Y81536D01*
X263101D01*
Y80203D02*
X267100D01*
Y78203D01*
X266434Y77537D01*
X263768D01*
X263101Y78203D01*
Y80203D01*
X263100Y102600D02*
Y103933D01*
Y103267D01*
X267099D01*
X266432Y102600D01*
X262900Y-3400D02*
Y-2067D01*
Y-2733D01*
X266899D01*
X266232Y-3400D01*
D77*
X207900Y63200D02*
Y68532D01*
X205234Y71197D01*
X202568Y68532D01*
Y63200D01*
Y67199D01*
X207900D01*
X199903Y71197D02*
Y63200D01*
X194571D01*
X191905D02*
Y68532D01*
X189239Y71197D01*
X186574Y68532D01*
Y63200D01*
Y67199D01*
X191905D01*
X183908Y63200D02*
Y71197D01*
X178576Y63200D01*
Y71197D01*
X167913Y63200D02*
Y71197D01*
X163914D01*
X162581Y69864D01*
Y67199D01*
X163914Y65866D01*
X167913D01*
X159915Y63200D02*
Y71197D01*
X155917D01*
X154584Y69864D01*
Y67199D01*
X155917Y65866D01*
X159915D01*
X157250D02*
X154584Y63200D01*
X151918D02*
Y68532D01*
X149252Y71197D01*
X146587Y68532D01*
Y63200D01*
Y67199D01*
X151918D01*
X138589Y69864D02*
X139922Y71197D01*
X142588D01*
X143921Y69864D01*
Y64533D01*
X142588Y63200D01*
X139922D01*
X138589Y64533D01*
X135923Y71197D02*
X130592D01*
X133257D01*
Y63200D01*
X127926Y71197D02*
X125260D01*
X126593D01*
Y63200D01*
X127926D01*
X125260D01*
X115930Y69864D02*
X117263Y71197D01*
X119929D01*
X121261Y69864D01*
Y64533D01*
X119929Y63200D01*
X117263D01*
X115930Y64533D01*
X107932Y71197D02*
X113264D01*
Y63200D01*
X107932D01*
X113264Y67199D02*
X110598D01*
M02*
