G04*
G04 #@! TF.GenerationSoftware,Altium Limited,Altium Designer,25.4.2 (15)*
G04*
G04 Layer_Color=16711935*
%FSLAX25Y25*%
%MOIN*%
G70*
G04*
G04 #@! TF.SameCoordinates,6D7273DC-0862-4ADB-9A81-04C38C25D803*
G04*
G04*
G04 #@! TF.FilePolarity,Negative*
G04*
G01*
G75*
%ADD51C,0.06800*%
%ADD52R,0.06800X0.06800*%
G04:AMPARAMS|DCode=53|XSize=39.37mil|YSize=70.87mil|CornerRadius=19.68mil|HoleSize=0mil|Usage=FLASHONLY|Rotation=270.000|XOffset=0mil|YOffset=0mil|HoleType=Round|Shape=RoundedRectangle|*
%AMROUNDEDRECTD53*
21,1,0.03937,0.03150,0,0,270.0*
21,1,0.00000,0.07087,0,0,270.0*
1,1,0.03937,-0.01575,0.00000*
1,1,0.03937,-0.01575,0.00000*
1,1,0.03937,0.01575,0.00000*
1,1,0.03937,0.01575,0.00000*
%
%ADD53ROUNDEDRECTD53*%
G04:AMPARAMS|DCode=54|XSize=39.37mil|YSize=86.61mil|CornerRadius=19.68mil|HoleSize=0mil|Usage=FLASHONLY|Rotation=270.000|XOffset=0mil|YOffset=0mil|HoleType=Round|Shape=RoundedRectangle|*
%AMROUNDEDRECTD54*
21,1,0.03937,0.04724,0,0,270.0*
21,1,0.00000,0.08661,0,0,270.0*
1,1,0.03937,-0.02362,0.00000*
1,1,0.03937,-0.02362,0.00000*
1,1,0.03937,0.02362,0.00000*
1,1,0.03937,0.02362,0.00000*
%
%ADD54ROUNDEDRECTD54*%
%ADD55R,0.04400X0.04400*%
%ADD56C,0.04400*%
%ADD57R,0.04400X0.04400*%
D51*
X255000Y95000D02*
D03*
X245000D02*
D03*
X235000D02*
D03*
X225000D02*
D03*
X215000D02*
D03*
X205000D02*
D03*
X195000D02*
D03*
X185000D02*
D03*
X175000D02*
D03*
X165000D02*
D03*
X155000D02*
D03*
X145000D02*
D03*
X135000D02*
D03*
X125000D02*
D03*
X115000D02*
D03*
X105000D02*
D03*
X95000D02*
D03*
X85000D02*
D03*
X75000D02*
D03*
X65000D02*
D03*
X55000D02*
D03*
X35000D02*
D03*
X45000D02*
D03*
X255000Y5000D02*
D03*
X35000D02*
D03*
X45000D02*
D03*
X55000D02*
D03*
X65000D02*
D03*
X75000D02*
D03*
X85000D02*
D03*
X95000D02*
D03*
X105000D02*
D03*
X115000D02*
D03*
X125000D02*
D03*
X135000D02*
D03*
X145000D02*
D03*
X155000D02*
D03*
X165000D02*
D03*
X175000D02*
D03*
X185000D02*
D03*
X195000D02*
D03*
X205000D02*
D03*
X215000D02*
D03*
X225000D02*
D03*
X235000D02*
D03*
X245000D02*
D03*
D52*
X265000Y95000D02*
D03*
Y5000D02*
D03*
D53*
X21721Y94508D02*
D03*
Y39008D02*
D03*
Y60492D02*
D03*
Y4992D02*
D03*
D54*
X5972Y94508D02*
D03*
Y60492D02*
D03*
Y39008D02*
D03*
Y4992D02*
D03*
D55*
X37500Y55000D02*
D03*
D56*
X142500Y50000D02*
D03*
X37500D02*
D03*
Y45000D02*
D03*
D57*
X137500Y50000D02*
D03*
M02*
