G04*
G04 #@! TF.GenerationSoftware,Altium Limited,Altium Designer,25.4.2 (15)*
G04*
G04 Layer_Physical_Order=3*
G04 Layer_Color=32768*
%FSLAX25Y25*%
%MOIN*%
G70*
G04*
G04 #@! TF.SameCoordinates,6D7273DC-0862-4ADB-9A81-04C38C25D803*
G04*
G04*
G04 #@! TF.FilePolarity,Negative*
G04*
G01*
G75*
%ADD51C,0.06800*%
%ADD71C,0.00010*%
%ADD72C,0.08000*%
G04:AMPARAMS|DCode=73|XSize=100mil|YSize=100mil|CornerRadius=0mil|HoleSize=0mil|Usage=FLASHONLY|Rotation=0.000|XOffset=0mil|YOffset=0mil|HoleType=Round|Shape=Relief|Width=20mil|Gap=10mil|Entries=4|*
%AMTHD73*
7,0,0,0.10000,0.08000,0.02000,45*
%
%ADD73THD73*%
%AMTHOVALD74*
21,1,0.03150,0.08362,0,0,360.0*
1,1,0.08362,-0.01575,0.00000*
1,1,0.08362,0.01575,0.00000*
21,0,0.03150,0.06362,0,0,360.0*
1,0,0.06362,-0.01575,0.00000*
1,0,0.06362,0.01575,0.00000*
4,0,4,-0.00868,-0.00707,-0.03824,-0.03664,-0.05238,-0.02249,-0.02282,0.00707,-0.00868,-0.00707,0.0*
4,0,4,0.02282,-0.00707,0.05238,0.02249,0.03824,0.03664,0.00868,0.00707,0.02282,-0.00707,0.0*
4,0,4,-0.02282,-0.00707,-0.05238,0.02249,-0.03824,0.03664,-0.00868,0.00707,-0.02282,-0.00707,0.0*
4,0,4,0.00868,-0.00707,0.03824,-0.03664,0.05238,-0.02249,0.02282,0.00707,0.00868,-0.00707,0.0*
%
%ADD74THOVALD74*%

%AMTHOVALD75*
21,1,0.04724,0.08362,0,0,360.0*
1,1,0.08362,-0.02362,0.00000*
1,1,0.08362,0.02362,0.00000*
21,0,0.04724,0.06362,0,0,360.0*
1,0,0.06362,-0.02362,0.00000*
1,0,0.06362,0.02362,0.00000*
4,0,4,-0.01655,-0.00707,-0.04612,-0.03664,-0.06026,-0.02249,-0.03069,0.00707,-0.01655,-0.00707,0.0*
4,0,4,0.03069,-0.00707,0.06026,0.02249,0.04612,0.03664,0.01655,0.00707,0.03069,-0.00707,0.0*
4,0,4,-0.03069,-0.00707,-0.06026,0.02249,-0.04612,0.03664,-0.01655,0.00707,-0.03069,-0.00707,0.0*
4,0,4,0.01655,-0.00707,0.04612,-0.03664,0.06026,-0.02249,0.03069,0.00707,0.01655,-0.00707,0.0*
%
%ADD75THOVALD75*%

%ADD76C,0.05200*%
D51*
X37500Y55000D02*
D03*
X142500Y50000D02*
D03*
X137500D02*
D03*
X37500D02*
D03*
Y45000D02*
D03*
D71*
X0Y0D02*
Y100000D01*
X270000D01*
Y0D02*
Y100000D01*
X0Y0D02*
X270000D01*
D72*
X255000Y95000D02*
D03*
X245000D02*
D03*
X235000D02*
D03*
X225000D02*
D03*
X215000D02*
D03*
X205000D02*
D03*
X195000D02*
D03*
X185000D02*
D03*
X175000D02*
D03*
X165000D02*
D03*
X155000D02*
D03*
X145000D02*
D03*
X135000D02*
D03*
X125000D02*
D03*
X115000D02*
D03*
X105000D02*
D03*
X95000D02*
D03*
X85000D02*
D03*
X75000D02*
D03*
X65000D02*
D03*
X55000D02*
D03*
X35000D02*
D03*
X45000Y5000D02*
D03*
X55000D02*
D03*
X65000D02*
D03*
X75000D02*
D03*
X85000D02*
D03*
X95000D02*
D03*
X105000D02*
D03*
X115000D02*
D03*
X125000D02*
D03*
X135000D02*
D03*
X145000D02*
D03*
X155000D02*
D03*
X165000D02*
D03*
X175000D02*
D03*
X185000D02*
D03*
X195000D02*
D03*
X205000D02*
D03*
X215000D02*
D03*
X225000D02*
D03*
X235000D02*
D03*
X245000D02*
D03*
X265000D02*
D03*
D73*
Y95000D02*
D03*
X45000D02*
D03*
X255000Y5000D02*
D03*
X35000D02*
D03*
D74*
X21721Y94508D02*
D03*
Y39008D02*
D03*
Y60492D02*
D03*
Y4992D02*
D03*
D75*
X5972Y94508D02*
D03*
Y60492D02*
D03*
Y39008D02*
D03*
Y4992D02*
D03*
D76*
X75000Y88400D02*
D03*
X89882Y72600D02*
D03*
X83500Y19900D02*
D03*
X76700Y20200D02*
D03*
X79500Y47500D02*
D03*
X53700Y15800D02*
D03*
X49500Y15900D02*
D03*
X57900Y15800D02*
D03*
X181500Y37000D02*
D03*
X191070Y29730D02*
D03*
X175300Y37900D02*
D03*
X198100Y38200D02*
D03*
X198352Y29911D02*
D03*
X188600Y37900D02*
D03*
X45790Y20990D02*
D03*
X45800Y17000D02*
D03*
X243258Y32392D02*
D03*
X236565D02*
D03*
X246678Y67515D02*
D03*
X240000Y67500D02*
D03*
X250000Y73000D02*
D03*
X249951Y32392D02*
D03*
X223179D02*
D03*
X229872D02*
D03*
X216486D02*
D03*
X243297Y73010D02*
D03*
X254300Y88700D02*
D03*
X250600Y88800D02*
D03*
X219852Y26911D02*
D03*
X226545D02*
D03*
X233238D02*
D03*
X246624D02*
D03*
X239931D02*
D03*
X219892Y67529D02*
D03*
X226585D02*
D03*
X233278D02*
D03*
X223218Y73010D02*
D03*
X216526D02*
D03*
X236604D02*
D03*
X229911D02*
D03*
X31400Y77700D02*
D03*
X35400Y77900D02*
D03*
X192400Y66800D02*
D03*
X181578Y76600D02*
D03*
X176400Y62200D02*
D03*
X82800Y84400D02*
D03*
X46000Y74100D02*
D03*
Y78100D02*
D03*
X186500Y70900D02*
D03*
X187200Y50200D02*
D03*
X187100Y45900D02*
D03*
X201700Y44700D02*
D03*
Y51400D02*
D03*
X186600Y63400D02*
D03*
X192100Y73600D02*
D03*
X157200Y61000D02*
D03*
X166300Y60200D02*
D03*
X151200Y60100D02*
D03*
X166800Y79200D02*
D03*
X171900Y62100D02*
D03*
X148400Y52300D02*
D03*
X61300Y49900D02*
D03*
X61800Y68500D02*
D03*
X97100Y87400D02*
D03*
M02*
