G04*
G04 #@! TF.GenerationSoftware,Altium Limited,Altium Designer,25.4.2 (15)*
G04*
G04 Layer_Physical_Order=1*
G04 Layer_Color=255*
%FSLAX25Y25*%
%MOIN*%
G70*
G04*
G04 #@! TF.SameCoordinates,6D7273DC-0862-4ADB-9A81-04C38C25D803*
G04*
G04*
G04 #@! TF.FilePolarity,Positive*
G04*
G01*
G75*
%ADD11C,0.00600*%
%ADD16R,0.02362X0.02126*%
G04:AMPARAMS|DCode=17|XSize=23.62mil|YSize=21.26mil|CornerRadius=5.63mil|HoleSize=0mil|Usage=FLASHONLY|Rotation=180.000|XOffset=0mil|YOffset=0mil|HoleType=Round|Shape=RoundedRectangle|*
%AMROUNDEDRECTD17*
21,1,0.02362,0.00999,0,0,180.0*
21,1,0.01235,0.02126,0,0,180.0*
1,1,0.01127,-0.00618,0.00500*
1,1,0.01127,0.00618,0.00500*
1,1,0.01127,0.00618,-0.00500*
1,1,0.01127,-0.00618,-0.00500*
%
%ADD17ROUNDEDRECTD17*%
%ADD18R,0.02362X0.01378*%
G04:AMPARAMS|DCode=19|XSize=23.62mil|YSize=21.26mil|CornerRadius=5.63mil|HoleSize=0mil|Usage=FLASHONLY|Rotation=90.000|XOffset=0mil|YOffset=0mil|HoleType=Round|Shape=RoundedRectangle|*
%AMROUNDEDRECTD19*
21,1,0.02362,0.00999,0,0,90.0*
21,1,0.01235,0.02126,0,0,90.0*
1,1,0.01127,0.00500,0.00618*
1,1,0.01127,0.00500,-0.00618*
1,1,0.01127,-0.00500,-0.00618*
1,1,0.01127,-0.00500,0.00618*
%
%ADD19ROUNDEDRECTD19*%
%ADD20R,0.02126X0.02362*%
%ADD21R,0.01378X0.02362*%
%ADD22R,0.06102X0.05118*%
%ADD23R,0.05343X0.02253*%
G04:AMPARAMS|DCode=24|XSize=53.43mil|YSize=22.53mil|CornerRadius=11.26mil|HoleSize=0mil|Usage=FLASHONLY|Rotation=0.000|XOffset=0mil|YOffset=0mil|HoleType=Round|Shape=RoundedRectangle|*
%AMROUNDEDRECTD24*
21,1,0.05343,0.00000,0,0,0.0*
21,1,0.03091,0.02253,0,0,0.0*
1,1,0.02253,0.01545,0.00000*
1,1,0.02253,-0.01545,0.00000*
1,1,0.02253,-0.01545,0.00000*
1,1,0.02253,0.01545,0.00000*
%
%ADD24ROUNDEDRECTD24*%
%ADD25R,0.03150X0.03150*%
%ADD26R,0.03150X0.01575*%
%ADD27R,0.01575X0.03150*%
%ADD28R,0.04724X0.04724*%
G04:AMPARAMS|DCode=29|XSize=33.06mil|YSize=9.55mil|CornerRadius=4.77mil|HoleSize=0mil|Usage=FLASHONLY|Rotation=270.000|XOffset=0mil|YOffset=0mil|HoleType=Round|Shape=RoundedRectangle|*
%AMROUNDEDRECTD29*
21,1,0.03306,0.00000,0,0,270.0*
21,1,0.02351,0.00955,0,0,270.0*
1,1,0.00955,0.00000,-0.01176*
1,1,0.00955,0.00000,0.01176*
1,1,0.00955,0.00000,0.01176*
1,1,0.00955,0.00000,-0.01176*
%
%ADD29ROUNDEDRECTD29*%
%ADD30R,0.04528X0.02362*%
%ADD31R,0.02756X0.02362*%
G04:AMPARAMS|DCode=32|XSize=125.98mil|YSize=68.9mil|CornerRadius=2.07mil|HoleSize=0mil|Usage=FLASHONLY|Rotation=90.000|XOffset=0mil|YOffset=0mil|HoleType=Round|Shape=RoundedRectangle|*
%AMROUNDEDRECTD32*
21,1,0.12598,0.06476,0,0,90.0*
21,1,0.12185,0.06890,0,0,90.0*
1,1,0.00413,0.03238,0.06093*
1,1,0.00413,0.03238,-0.06093*
1,1,0.00413,-0.03238,-0.06093*
1,1,0.00413,-0.03238,0.06093*
%
%ADD32ROUNDEDRECTD32*%
G04:AMPARAMS|DCode=33|XSize=35.43mil|YSize=68.9mil|CornerRadius=1.95mil|HoleSize=0mil|Usage=FLASHONLY|Rotation=90.000|XOffset=0mil|YOffset=0mil|HoleType=Round|Shape=RoundedRectangle|*
%AMROUNDEDRECTD33*
21,1,0.03543,0.06500,0,0,90.0*
21,1,0.03154,0.06890,0,0,90.0*
1,1,0.00390,0.03250,0.01577*
1,1,0.00390,0.03250,-0.01577*
1,1,0.00390,-0.03250,-0.01577*
1,1,0.00390,-0.03250,0.01577*
%
%ADD33ROUNDEDRECTD33*%
%ADD34R,0.04528X0.01181*%
%ADD35R,0.00955X0.03306*%
G04:AMPARAMS|DCode=36|XSize=9.55mil|YSize=33.06mil|CornerRadius=4.77mil|HoleSize=0mil|Usage=FLASHONLY|Rotation=270.000|XOffset=0mil|YOffset=0mil|HoleType=Round|Shape=RoundedRectangle|*
%AMROUNDEDRECTD36*
21,1,0.00955,0.02351,0,0,270.0*
21,1,0.00000,0.03306,0,0,270.0*
1,1,0.00955,-0.01176,0.00000*
1,1,0.00955,-0.01176,0.00000*
1,1,0.00955,0.01176,0.00000*
1,1,0.00955,0.01176,0.00000*
%
%ADD36ROUNDEDRECTD36*%
%ADD47R,0.08071X0.08071*%
G04:AMPARAMS|DCode=53|XSize=39.37mil|YSize=70.87mil|CornerRadius=19.68mil|HoleSize=0mil|Usage=FLASHONLY|Rotation=270.000|XOffset=0mil|YOffset=0mil|HoleType=Round|Shape=RoundedRectangle|*
%AMROUNDEDRECTD53*
21,1,0.03937,0.03150,0,0,270.0*
21,1,0.00000,0.07087,0,0,270.0*
1,1,0.03937,-0.01575,0.00000*
1,1,0.03937,-0.01575,0.00000*
1,1,0.03937,0.01575,0.00000*
1,1,0.03937,0.01575,0.00000*
%
%ADD53ROUNDEDRECTD53*%
G04:AMPARAMS|DCode=54|XSize=39.37mil|YSize=86.61mil|CornerRadius=19.68mil|HoleSize=0mil|Usage=FLASHONLY|Rotation=270.000|XOffset=0mil|YOffset=0mil|HoleType=Round|Shape=RoundedRectangle|*
%AMROUNDEDRECTD54*
21,1,0.03937,0.04724,0,0,270.0*
21,1,0.00000,0.08661,0,0,270.0*
1,1,0.03937,-0.02362,0.00000*
1,1,0.03937,-0.02362,0.00000*
1,1,0.03937,0.02362,0.00000*
1,1,0.03937,0.02362,0.00000*
%
%ADD54ROUNDEDRECTD54*%
%ADD58R,0.01575X0.01575*%
%ADD59C,0.01500*%
%ADD60C,0.00603*%
%ADD61C,0.01200*%
%ADD62C,0.02000*%
%ADD63C,0.06400*%
%ADD64R,0.06400X0.06400*%
%ADD65R,0.04000X0.04000*%
%ADD66C,0.04000*%
%ADD67R,0.04000X0.04000*%
%ADD68C,0.02400*%
G36*
X255800Y87800D02*
X255600Y87600D01*
Y86121D01*
X255599Y86118D01*
Y84900D01*
X255557Y84400D01*
X248100D01*
X248000Y84441D01*
Y88189D01*
X248065Y88254D01*
X248073Y88273D01*
X248900Y89100D01*
Y89800D01*
X249600Y90500D01*
X255800D01*
Y87800D01*
D02*
G37*
G36*
X91000Y79300D02*
X88600D01*
X86600Y81300D01*
X81500D01*
Y85500D01*
X82900Y86900D01*
X91000D01*
Y79300D01*
D02*
G37*
G36*
X58500Y72512D02*
X57500Y71800D01*
Y70400D01*
X58100Y69700D01*
X62400D01*
X63000Y69100D01*
Y67671D01*
X60929Y65600D01*
X58800D01*
X56550Y63350D01*
Y59300D01*
X57050Y58800D01*
X58019D01*
Y58638D01*
X61100D01*
Y56200D01*
Y56000D01*
X57700Y56000D01*
X53100Y60600D01*
X53100Y70700D01*
X54600D01*
X57412Y73600D01*
X58500D01*
Y72512D01*
D02*
G37*
G36*
X43300Y53020D02*
X36000D01*
X35901Y53000D01*
X35000D01*
Y60519D01*
X35009D01*
Y64881D01*
X35000D01*
Y67500D01*
X43300D01*
Y53020D01*
D02*
G37*
G36*
X227900Y62600D02*
X252600D01*
Y37200D01*
X227556D01*
X227204Y37555D01*
X227392Y62456D01*
X227854Y62646D01*
X227900Y62600D01*
D02*
G37*
G36*
X57000Y40000D02*
X69000D01*
Y36000D01*
X62000D01*
X61000Y37000D01*
X55000D01*
X44000Y48000D01*
X37895Y48000D01*
X37895Y48000D01*
X37105D01*
X37105Y48000D01*
X36000D01*
X35500Y48500D01*
X35500Y51500D01*
X36000Y52000D01*
X45000D01*
X57000Y40000D01*
D02*
G37*
G36*
X118700Y14156D02*
X118344Y13806D01*
X86855Y14300D01*
Y20253D01*
X84208Y22900D01*
X49900D01*
X47600Y25200D01*
Y32400D01*
X51000Y35800D01*
X58500Y35800D01*
X59700Y34600D01*
X79279D01*
X94779Y49400D01*
X118700D01*
Y14156D01*
D02*
G37*
G36*
X35922Y46996D02*
X36000Y46980D01*
X36000D01*
D01*
X37105D01*
X37105Y46980D01*
X37895D01*
X37895Y46980D01*
X41720Y46980D01*
X42900Y45800D01*
Y30400D01*
X33700D01*
X33500Y30600D01*
Y47000D01*
X35901D01*
X35922Y46996D01*
D02*
G37*
G36*
X69400Y15700D02*
X68200Y14500D01*
X48800D01*
X48300Y15000D01*
Y20600D01*
X49500Y21800D01*
X69400D01*
Y15700D01*
D02*
G37*
D11*
X74968Y88368D02*
X75000Y88400D01*
X74968Y84573D02*
Y88368D01*
X74937Y84541D02*
X74968Y84573D01*
X31300Y28200D02*
X39883D01*
X40882Y27201D02*
X41000D01*
X23984Y26921D02*
X30021D01*
X39883Y28200D02*
X40882Y27201D01*
X30021Y26921D02*
X31300Y28200D01*
X154400Y59982D02*
X170600Y43782D01*
X30300Y85300D02*
X34200Y89200D01*
X83091Y75300D02*
X91000D01*
X99700Y66600D01*
X101900Y62999D02*
X102463Y63562D01*
X104643D02*
X105229Y64148D01*
Y68629D02*
X106068Y69468D01*
X108843D01*
X192273Y19327D02*
X210653D01*
X179093Y68693D02*
X190400Y80000D01*
X148400Y33376D02*
Y52300D01*
Y33376D02*
X154178Y27598D01*
X155650Y66142D02*
X160249D01*
X165000Y68693D02*
X179093D01*
X160249Y66142D02*
X162319Y68212D01*
X176782Y32600D02*
X179000D01*
X190400Y80000D02*
X195299D01*
X124350Y66142D02*
X155650D01*
X164519Y68212D02*
X165000Y68693D01*
X162319Y68212D02*
X164519D01*
X124350Y66142D02*
Y70950D01*
X117000Y78300D02*
X124350Y70950D01*
X117000Y78300D02*
Y80600D01*
X173000Y81870D02*
Y88300D01*
X198701Y80000D02*
Y85000D01*
X242272D01*
X212355Y63373D02*
X212382Y63346D01*
X45200Y69100D02*
X45579D01*
X83179Y84400D02*
X84279Y85500D01*
X80554Y75009D02*
X82963Y72600D01*
X27421Y82421D02*
X30300Y85300D01*
X46679Y68000D02*
X49706D01*
X78541Y78969D02*
X86769D01*
X53317Y66662D02*
X55500Y64479D01*
X30136Y70610D02*
X30300Y70446D01*
X71023Y67056D02*
Y69436D01*
X71000Y84541D02*
Y87700D01*
X54193Y94193D02*
X55000Y95000D01*
X72307Y61000D02*
Y61118D01*
X54193Y86000D02*
Y94193D01*
X64500Y60693D02*
Y65500D01*
X70200Y88500D02*
X71000Y87700D01*
X67063Y68063D02*
Y69459D01*
X81391Y77000D02*
X81937Y76454D01*
X83091Y75300D01*
X86736Y67181D02*
X87299Y66618D01*
X79672Y73063D02*
X85553Y67181D01*
X87299Y61500D02*
Y66500D01*
Y66618D01*
X85553Y67181D02*
X86736D01*
X78541Y73063D02*
X79672D01*
X47000Y86000D02*
X50807D01*
X45579Y69100D02*
X46679Y68000D01*
X64496Y60697D02*
X64500Y60693D01*
X46900Y85900D02*
X47000Y86000D01*
X55500Y59000D02*
Y64479D01*
X59504Y60697D02*
X64496D01*
X59500Y60701D02*
X59504Y60697D01*
X53317Y66662D02*
Y68708D01*
X57638Y73063D02*
X63459D01*
X194628Y33228D02*
X212382D01*
X198382Y29882D02*
X212382D01*
X191100Y29700D02*
X194628Y33228D01*
X169470Y81870D02*
X173000D01*
X166800Y79200D02*
X169470Y81870D01*
X170600Y35953D02*
Y43782D01*
Y35953D02*
X189226Y17327D01*
X200882Y15681D02*
X201236D01*
X100919Y77819D02*
X101800Y78700D01*
X207600Y55713D02*
X209718Y53594D01*
X212094D02*
X212382Y53307D01*
X209718Y53594D02*
X212094D01*
X170787Y55713D02*
X207600D01*
X74937Y66263D02*
X84019Y57181D01*
X74937Y66263D02*
Y66700D01*
X71023Y67056D02*
X72400Y65679D01*
X74937Y66700D02*
Y69459D01*
X78541Y77000D02*
X81391D01*
X80563Y80937D02*
X81726Y82100D01*
X55500Y59000D02*
X56638Y57862D01*
X82800Y84400D02*
X83179D01*
X84279Y85500D02*
X89799D01*
X179000Y32600D02*
X192273Y19327D01*
X210653D02*
X212299Y17681D01*
X211307Y56941D02*
X211595Y56653D01*
X207522Y73386D02*
X212382D01*
X171900Y62072D02*
X176259Y57713D01*
X210721D02*
X211307Y57127D01*
X192100Y73600D02*
X201100D01*
X201779Y72921D01*
X211595Y56653D02*
X212382D01*
X172600Y36782D02*
Y45600D01*
X201779Y72921D02*
X207057D01*
X207522Y73386D01*
X212299Y15000D02*
Y17681D01*
X78564Y75009D02*
X80554D01*
X172600Y36782D02*
X176782Y32600D01*
X78541Y75032D02*
X78564Y75009D01*
X253039Y77807D02*
X253327Y77520D01*
X250011Y81972D02*
X253039Y78944D01*
X101800Y81099D02*
X110535D01*
X110480Y65186D02*
X113687Y68393D01*
X175429Y78130D02*
X176313Y79014D01*
X253039Y77807D02*
Y78944D01*
X101800Y78700D02*
Y81099D01*
X242272Y85000D02*
X245300Y81972D01*
X113687Y68393D02*
Y77948D01*
X166300Y60200D02*
X170787Y55713D01*
X245300Y81972D02*
X250011D01*
X109902Y62560D02*
X110480Y63138D01*
X192454Y66746D02*
X212328D01*
X110480Y63138D02*
Y65186D01*
X195299Y85000D02*
X195862Y85563D01*
X110535Y81099D02*
X113687Y77948D01*
X109415Y62560D02*
X109902D01*
X71000Y69459D02*
X71023Y69436D01*
X189226Y17327D02*
X199236D01*
X157200Y61000D02*
X172600Y45600D01*
X249980Y77520D02*
X249990Y77510D01*
X206203Y36575D02*
X212382D01*
X38562Y69000D02*
X39982Y70420D01*
X108843Y69468D02*
X109415Y70040D01*
X102463Y63562D02*
X104643D01*
X99700Y66600D02*
X101701D01*
X101900Y66401D01*
X86769Y78969D02*
X87918Y77819D01*
X155650Y20114D02*
X157728Y22193D01*
X124843Y16142D02*
X126902Y18201D01*
X122000Y55600D02*
X127700D01*
X132100Y23891D02*
Y51200D01*
X116900Y60700D02*
Y66300D01*
X127700Y55600D02*
X132100Y51200D01*
X87918Y77819D02*
X100919D01*
X157728Y22193D02*
X165000D01*
X126902Y18201D02*
Y18693D01*
X132100Y23891D01*
X154178Y27598D02*
X165000D01*
X124350Y16142D02*
X155650D01*
X165000Y22193D02*
Y27598D01*
X124350Y16142D02*
X124843D01*
X155650D02*
Y20114D01*
X116900Y60700D02*
X122000Y55600D01*
X249990Y73010D02*
Y77510D01*
Y73010D02*
X250000Y73000D01*
X211307Y56941D02*
Y57127D01*
X58937Y57862D02*
X59500Y57299D01*
X215350Y5350D02*
Y14650D01*
X69023Y66700D02*
X69032Y66709D01*
X215350Y14650D02*
X215701Y15000D01*
X205100Y14900D02*
X205201Y15000D01*
X89799Y85500D02*
X89803Y85496D01*
X56638Y57862D02*
X58937D01*
X205000Y5000D02*
X205100Y5100D01*
Y14900D01*
X89803Y80504D02*
X89807Y80500D01*
X64500Y65500D02*
X67063Y68063D01*
X215000Y5000D02*
X215350Y5350D01*
X107970Y76860D02*
X109515D01*
X101900Y66401D02*
Y70790D01*
X187740Y70039D02*
X212382D01*
X101900Y70790D02*
X107970Y76860D01*
X105229Y64148D02*
Y68629D01*
X239941Y77520D02*
X239970Y77490D01*
X246649Y67544D02*
Y77505D01*
X216516Y73020D02*
Y77520D01*
Y22402D02*
Y32362D01*
X249980Y22402D02*
Y32362D01*
X246634Y22402D02*
Y26902D01*
X243287Y22402D02*
Y32362D01*
X239941Y22402D02*
Y26902D01*
X236595Y22402D02*
Y32362D01*
X233248Y22402D02*
Y26902D01*
X229902Y22402D02*
Y32362D01*
X226555Y22402D02*
Y26902D01*
X239970Y67529D02*
Y77490D01*
Y67529D02*
X240000Y67500D01*
X236595Y73020D02*
Y77520D01*
X243287Y73020D02*
Y77520D01*
X204412Y75621D02*
X206310Y77520D01*
X233248Y67559D02*
Y77520D01*
X263079Y22114D02*
X263366Y22402D01*
X186627Y63373D02*
X212355D01*
X212328Y66746D02*
X212382Y66693D01*
X192400Y66800D02*
X192454Y66746D01*
X186600Y63400D02*
X186627Y63373D01*
X188600Y37900D02*
Y38000D01*
X190065Y26535D02*
X212382D01*
X181500Y35100D02*
Y37000D01*
Y35100D02*
X190065Y26535D01*
X198300Y38400D02*
X205200D01*
X198100Y38200D02*
X198300Y38400D01*
X206721Y39921D02*
X212382D01*
X186879Y70900D02*
X187740Y70039D01*
X186500Y70900D02*
X186879D01*
X178600Y60000D02*
X212382D01*
X176400Y62200D02*
X178600Y60000D01*
X178996Y81705D02*
X179000Y81701D01*
X173000Y78130D02*
X175429D01*
X176313Y79014D02*
Y81113D01*
X176905Y81705D01*
X178996D01*
X206310Y77520D02*
X212382D01*
X204390Y75621D02*
X204412D01*
X82963Y72600D02*
X89882D01*
X175000Y90300D02*
X220300D01*
X173000Y88300D02*
X175000Y90300D01*
X220300D02*
X225000Y95000D01*
X75693Y55916D02*
Y56000D01*
X87299Y56500D02*
Y56618D01*
X253485Y13485D02*
X255586D01*
X205200Y38400D02*
X206721Y39921D01*
X86736Y57181D02*
X87299Y56618D01*
X84019Y57181D02*
X86736D01*
X75693Y60882D02*
Y61000D01*
X259732Y20823D02*
Y22114D01*
X260020Y22402D01*
X245485Y15485D02*
X254394D01*
X235000Y5000D02*
X245485Y15485D01*
X254394D02*
X259732Y20823D01*
X263079Y20977D02*
Y22114D01*
X255586Y13485D02*
X263079Y20977D01*
X245000Y5000D02*
X253485Y13485D01*
X30300Y70446D02*
X31746Y69000D01*
X53300Y68725D02*
X57638Y73063D01*
X53300Y68725D02*
X53317Y68708D01*
X39982Y70420D02*
X40100D01*
X78541Y80937D02*
X80563D01*
X23984Y70610D02*
X30136D01*
X81726Y82100D02*
X82000D01*
X31746Y69000D02*
X38562D01*
X40100Y83421D02*
Y87300D01*
X23984Y82421D02*
X27421D01*
X34200Y89200D02*
X38200D01*
X40100Y87300D01*
X219862Y22402D02*
Y26902D01*
X223209Y73020D02*
Y77520D01*
X219862Y67559D02*
Y77520D01*
X226555Y67559D02*
Y77520D01*
X223209Y22402D02*
Y32362D01*
X229902Y73020D02*
Y77520D01*
X207239Y43268D02*
X212382D01*
X188600Y38000D02*
X191500Y40900D01*
X204872D02*
X207239Y43268D01*
X191500Y40900D02*
X204872D01*
X171900Y62072D02*
Y62100D01*
X176259Y57713D02*
X210721D01*
X197635Y88300D02*
X238300D01*
X245000Y95000D01*
X195862Y86527D02*
X197635Y88300D01*
X195862Y85563D02*
Y86527D01*
X202362Y14319D02*
X202407D01*
X201236Y15681D02*
X201799Y15118D01*
X199236Y17327D02*
X200882Y15681D01*
X151200Y60100D02*
X151318Y59982D01*
X154400D01*
X201799Y14882D02*
Y15118D01*
X72400Y65300D02*
Y65679D01*
X192872Y34300D02*
X193800Y35228D01*
X186482Y34300D02*
X192872D01*
X204857Y35228D02*
X206203Y36575D01*
X177100Y39700D02*
X182618D01*
X184550Y37768D01*
Y36232D02*
X186482Y34300D01*
X193800Y35228D02*
X204857D01*
X184550Y36232D02*
Y37768D01*
X175300Y37900D02*
X177100Y39700D01*
D16*
X60200Y57299D02*
D03*
Y60701D02*
D03*
X40100Y70420D02*
D03*
Y73821D02*
D03*
Y83421D02*
D03*
Y80020D02*
D03*
X41100Y15200D02*
D03*
X41000Y23799D02*
D03*
X101900Y62999D02*
D03*
Y66401D02*
D03*
X101800Y84501D02*
D03*
Y81099D02*
D03*
X179000Y78299D02*
D03*
Y81701D02*
D03*
Y22201D02*
D03*
Y18799D02*
D03*
X41000Y27201D02*
D03*
X41100Y11798D02*
D03*
X165000Y31000D02*
D03*
Y27598D02*
D03*
D17*
X65200Y60693D02*
D03*
Y57307D02*
D03*
X165000Y68693D02*
D03*
Y65307D02*
D03*
Y18807D02*
D03*
X56500Y34707D02*
D03*
X57800Y23993D02*
D03*
X52800D02*
D03*
X56500Y38093D02*
D03*
X57800Y20607D02*
D03*
X52800D02*
D03*
X165000Y22193D02*
D03*
D18*
X33600Y71700D02*
D03*
Y74259D02*
D03*
X33400Y83880D02*
D03*
Y81321D02*
D03*
X33000Y23280D02*
D03*
Y14720D02*
D03*
Y17279D02*
D03*
Y20720D02*
D03*
D19*
X52793Y68100D02*
D03*
X49407D02*
D03*
X45586Y62600D02*
D03*
X42200D02*
D03*
X41807Y37000D02*
D03*
X45193D02*
D03*
X266193Y85500D02*
D03*
X257693D02*
D03*
X245807D02*
D03*
X262307Y15000D02*
D03*
X93193Y80500D02*
D03*
X50807Y86000D02*
D03*
X75693Y61000D02*
D03*
Y56000D02*
D03*
X262807Y85500D02*
D03*
X265693Y15000D02*
D03*
X72307Y56000D02*
D03*
Y61000D02*
D03*
X54193Y86000D02*
D03*
X89807Y80500D02*
D03*
X249193Y85500D02*
D03*
X254307D02*
D03*
D20*
X87299Y61500D02*
D03*
X90701D02*
D03*
X87299Y66500D02*
D03*
X90701D02*
D03*
X87299Y56500D02*
D03*
X90701D02*
D03*
X49499Y78600D02*
D03*
X52901D02*
D03*
X49499Y73600D02*
D03*
X52901D02*
D03*
X75600Y51000D02*
D03*
X72198D02*
D03*
X201799Y15000D02*
D03*
X205201D02*
D03*
X72201Y51000D02*
D03*
X68799D02*
D03*
X89799Y85500D02*
D03*
X93201D02*
D03*
X198701Y85000D02*
D03*
X195299D02*
D03*
X212299Y15000D02*
D03*
X215701D02*
D03*
X198701Y80000D02*
D03*
X195299D02*
D03*
X194801Y51400D02*
D03*
X191399D02*
D03*
X194799Y44700D02*
D03*
X191398D02*
D03*
X194799Y51400D02*
D03*
X198201D02*
D03*
X194799Y44700D02*
D03*
X198201D02*
D03*
D21*
X33321Y62700D02*
D03*
X35879D02*
D03*
X31721Y37000D02*
D03*
X34280D02*
D03*
D22*
X155650Y66142D02*
D03*
X124350D02*
D03*
X155650Y83858D02*
D03*
X124350D02*
D03*
X155650Y33858D02*
D03*
X124350D02*
D03*
Y16142D02*
D03*
X155650D02*
D03*
D23*
X109515Y84340D02*
D03*
X109415Y70040D02*
D03*
D24*
X109515Y76860D02*
D03*
X117000Y80600D02*
D03*
X109415Y62560D02*
D03*
X116900Y66300D02*
D03*
D25*
X267500Y77520D02*
D03*
X212382D02*
D03*
X267500Y22402D02*
D03*
X212382D02*
D03*
D26*
X267500Y73386D02*
D03*
Y63346D02*
D03*
Y66693D02*
D03*
Y60000D02*
D03*
Y70039D02*
D03*
Y56653D02*
D03*
Y53307D02*
D03*
Y46614D02*
D03*
Y49961D02*
D03*
Y43268D02*
D03*
Y36575D02*
D03*
Y39921D02*
D03*
Y33228D02*
D03*
Y26535D02*
D03*
Y29882D02*
D03*
X212382Y73386D02*
D03*
Y70039D02*
D03*
Y66693D02*
D03*
Y63346D02*
D03*
Y60000D02*
D03*
Y56653D02*
D03*
Y53307D02*
D03*
Y49961D02*
D03*
Y46614D02*
D03*
Y43268D02*
D03*
Y39921D02*
D03*
Y36575D02*
D03*
Y33228D02*
D03*
Y29882D02*
D03*
Y26535D02*
D03*
D27*
X263366Y77520D02*
D03*
X260020D02*
D03*
X253327Y22402D02*
D03*
X256673D02*
D03*
Y77520D02*
D03*
X253327D02*
D03*
X249980D02*
D03*
X246634D02*
D03*
X243287D02*
D03*
X239941D02*
D03*
X236595D02*
D03*
X233248D02*
D03*
X229902D02*
D03*
X226555D02*
D03*
X223209D02*
D03*
X219862D02*
D03*
X216516D02*
D03*
Y22402D02*
D03*
X219862D02*
D03*
X223209D02*
D03*
X226555D02*
D03*
X229902D02*
D03*
X233248D02*
D03*
X236595D02*
D03*
X239941D02*
D03*
X243287D02*
D03*
X246634D02*
D03*
X249980D02*
D03*
X260020D02*
D03*
X263366D02*
D03*
D28*
X239941Y56457D02*
D03*
X233445D02*
D03*
X246437Y49961D02*
D03*
Y43465D02*
D03*
X239941D02*
D03*
Y49961D02*
D03*
X233445D02*
D03*
Y43465D02*
D03*
D29*
X71000Y84541D02*
D03*
Y69459D02*
D03*
X72969Y84541D02*
D03*
X69032D02*
D03*
X67063D02*
D03*
Y69459D02*
D03*
X69032D02*
D03*
X72969D02*
D03*
X74937D02*
D03*
D30*
X23984Y90098D02*
D03*
Y64902D02*
D03*
Y34598D02*
D03*
Y9402D02*
D03*
Y68051D02*
D03*
Y86949D02*
D03*
Y31449D02*
D03*
Y12551D02*
D03*
D31*
X173000Y18630D02*
D03*
Y78130D02*
D03*
Y81870D02*
D03*
Y22370D02*
D03*
D32*
X89906Y29000D02*
D03*
D33*
X65300D02*
D03*
Y38055D02*
D03*
Y19945D02*
D03*
D34*
X23984Y84390D02*
D03*
Y82421D02*
D03*
Y80453D02*
D03*
Y78484D02*
D03*
Y76516D02*
D03*
Y74547D02*
D03*
Y72579D02*
D03*
Y70610D02*
D03*
Y15110D02*
D03*
Y17079D02*
D03*
Y19047D02*
D03*
Y21016D02*
D03*
Y22984D02*
D03*
Y24953D02*
D03*
Y26921D02*
D03*
Y28890D02*
D03*
D35*
X74937Y84541D02*
D03*
D36*
X63459Y80937D02*
D03*
Y78969D02*
D03*
Y77000D02*
D03*
Y75032D02*
D03*
Y73063D02*
D03*
X78541D02*
D03*
Y75032D02*
D03*
Y77000D02*
D03*
Y78969D02*
D03*
Y80937D02*
D03*
D47*
X71000Y77000D02*
D03*
D53*
X21721Y94508D02*
D03*
Y39008D02*
D03*
Y60492D02*
D03*
Y4992D02*
D03*
D54*
X5972Y94508D02*
D03*
Y60492D02*
D03*
Y39008D02*
D03*
Y4992D02*
D03*
D58*
X246437Y56457D02*
D03*
D59*
X259300Y73200D02*
Y73444D01*
X260020Y74163D02*
Y77520D01*
X259300Y73444D02*
X260020Y74163D01*
X256673Y22402D02*
Y26483D01*
X256100Y27057D02*
X256673Y26483D01*
X256100Y27057D02*
Y27300D01*
X252680Y26433D02*
X253327Y25786D01*
X252680Y26433D02*
Y26676D01*
X253327Y22402D02*
Y25786D01*
X250600Y88556D02*
Y88800D01*
X249506Y85931D02*
Y87462D01*
X249193Y85618D02*
X249506Y85931D01*
Y87462D02*
X250600Y88556D01*
X245807Y85500D02*
Y88863D01*
X246200Y89257D02*
Y89500D01*
X245807Y88863D02*
X246200Y89257D01*
X254307Y85500D02*
X254620Y85187D01*
Y83398D02*
Y85187D01*
Y83398D02*
X256673Y81344D01*
Y77520D02*
Y81344D01*
X180817Y76600D02*
X181578D01*
X206700Y22400D02*
X206702Y22402D01*
X162300Y14800D02*
Y16225D01*
X89803Y80622D02*
X89807Y80618D01*
X89494Y80931D02*
X89803Y80622D01*
Y85496D01*
Y80504D02*
Y80622D01*
X72307Y56000D02*
Y61000D01*
Y51000D02*
Y56000D01*
X75693Y55882D02*
Y55916D01*
Y55882D02*
X77303Y54272D01*
X78228D01*
X78400Y54100D01*
X75693Y60882D02*
X78375Y58200D01*
X78600D01*
X62643Y51000D02*
X68799D01*
X61300Y49900D02*
X61544D01*
X62643Y51000D01*
X265500Y81900D02*
X267024Y80376D01*
X265880Y85813D02*
Y88670D01*
Y85813D02*
X266193Y85500D01*
X267024Y77995D02*
X267500Y77520D01*
X267024Y77995D02*
Y80376D01*
X265000Y89550D02*
X265880Y88670D01*
X262650Y81900D02*
X265500D01*
X265000Y89550D02*
Y95000D01*
X263000Y73386D02*
X267500D01*
X263000Y60000D02*
X267500D01*
X263000Y56653D02*
X267500D01*
X263000Y53307D02*
X267500D01*
X263000Y66693D02*
X267500D01*
X263000Y70039D02*
X267500D01*
X263000Y63346D02*
X267500D01*
X259800Y81900D02*
Y83275D01*
X257693Y85382D02*
X259800Y83275D01*
Y81900D02*
X262650D01*
X257693Y85382D02*
Y85500D01*
X262650Y81900D02*
X263366Y81184D01*
Y77520D02*
Y81184D01*
X263000Y43268D02*
X267500D01*
X263000Y39921D02*
X267500D01*
X263000Y36575D02*
X267500D01*
X263000Y33228D02*
X267500D01*
X263000Y49961D02*
X267500D01*
X263000Y46614D02*
X267500D01*
X266935Y21836D02*
X267500Y22402D01*
X266935Y19635D02*
Y21836D01*
X265788Y18488D02*
X266935Y19635D01*
X264597Y18316D02*
X264769Y18488D01*
X265788D01*
X263000Y26535D02*
X267500D01*
X263000Y29882D02*
X267500D01*
X261994Y14687D02*
X262307Y15000D01*
X261994Y11994D02*
Y14687D01*
X255000Y5000D02*
X261994Y11994D01*
X206702Y22402D02*
X212382D01*
X93193Y80500D02*
X96700D01*
X97600Y81400D01*
X164687Y64994D02*
X165000Y65307D01*
X164569Y64994D02*
X164687D01*
X160972Y62272D02*
X161847D01*
X164569Y64994D01*
X160800Y62100D02*
X160972Y62272D01*
X94757Y60800D02*
X95000D01*
X90701Y61500D02*
X94056D01*
X94757Y60800D01*
X94257Y56500D02*
X94656Y56100D01*
X94900D01*
X90701Y56500D02*
X94257D01*
X155650Y39850D02*
X155700Y39900D01*
X155650Y33858D02*
Y39850D01*
X169028Y20000D02*
X170329Y18700D01*
X169000Y20000D02*
X169028D01*
X164882Y18807D02*
X165000D01*
X172930Y18700D02*
X173000Y18630D01*
X170329Y18700D02*
X172930D01*
X162300Y16225D02*
X164882Y18807D01*
X64500Y54700D02*
Y57307D01*
X82000Y82100D02*
X88207D01*
X89807Y80500D02*
Y80618D01*
X89376Y80931D02*
X89494D01*
X88207Y82100D02*
X89376Y80931D01*
X78982Y47500D02*
X79500D01*
X75600Y50882D02*
X78982Y47500D01*
X75600Y50882D02*
Y51000D01*
X69023Y64403D02*
X72307Y61118D01*
X69023Y64403D02*
Y66700D01*
X69032Y66709D02*
Y69459D01*
X95101Y87400D02*
X97100D01*
X93632Y85931D02*
X95101Y87400D01*
X93514Y85931D02*
X93632D01*
X93201Y85618D02*
X93514Y85931D01*
X93201Y85500D02*
Y85618D01*
X179118Y78299D02*
X180817Y76600D01*
X179000Y78299D02*
X179118D01*
X265000Y5000D02*
X265693Y5693D01*
Y15000D01*
X254300Y88700D02*
X254307Y88693D01*
Y85500D02*
Y88693D01*
X255000Y95000D02*
X262807Y87193D01*
Y85500D02*
Y87193D01*
D60*
X33900Y79903D02*
X34376Y79426D01*
Y79410D02*
X35400Y78386D01*
Y77900D02*
Y78386D01*
X31400Y77589D02*
Y77700D01*
Y77589D02*
X32833Y76156D01*
Y74867D02*
Y76156D01*
X34376Y79410D02*
Y79426D01*
X27500Y80447D02*
X33894D01*
X33900Y80441D01*
Y79903D02*
Y80441D01*
X32833Y74867D02*
X33171Y74528D01*
X33761D01*
X23990Y80447D02*
X27500D01*
X23984Y80453D02*
X23990Y80447D01*
X69298Y8298D02*
X79399Y18398D01*
X80801Y17817D02*
Y19697D01*
X70701Y5353D02*
Y7717D01*
X80801Y17817D01*
X69298Y5353D02*
Y8298D01*
X79399Y18398D02*
Y19697D01*
X80801D02*
X81155Y20050D01*
X78895Y20200D02*
X79399Y19697D01*
X76700Y20200D02*
X78895D01*
X52901Y73718D02*
X53662Y74480D01*
X52901Y73600D02*
Y73718D01*
X53662Y74480D02*
X53780D01*
X54615Y75314D02*
X60086D01*
X24052Y74480D02*
X33600D01*
X23869Y74663D02*
X24052Y74480D01*
X27500Y77871D02*
Y80447D01*
X26434Y76805D02*
X27500Y77871D01*
X24273Y76805D02*
X26434D01*
X23984Y76516D02*
X24273Y76805D01*
X20200Y75500D02*
Y77700D01*
X23869Y78369D02*
X23984Y78484D01*
X20200Y75500D02*
X21037Y74663D01*
X20869Y78369D02*
X23869D01*
X20200Y77700D02*
X20869Y78369D01*
X21037Y74663D02*
X23869D01*
X46000Y74100D02*
X48999D01*
X49499Y73600D01*
X48999Y78100D02*
X49499Y78600D01*
X46000Y78100D02*
X48999D01*
X60086Y75314D02*
X60369Y75032D01*
X63459D01*
X52901Y78482D02*
Y78600D01*
X54783Y76717D02*
X59100D01*
X60017D01*
X60300Y77000D01*
X53780Y77720D02*
X54783Y76717D01*
X52901Y78482D02*
X53662Y77720D01*
X53780D01*
X60300Y77000D02*
X63459D01*
X53780Y74480D02*
X54615Y75314D01*
X32612Y21108D02*
X33000Y20720D01*
X30997Y21108D02*
X32612D01*
X27152Y24953D02*
X30997Y21108D01*
X23984Y24953D02*
X27152D01*
X28600Y19047D02*
X29653D01*
X31268Y17432D01*
X32847D02*
X33000Y17279D01*
X31268Y17432D02*
X32847D01*
X33000Y17279D02*
X33492D01*
X28600Y19047D02*
Y21600D01*
X27216Y22984D02*
X28600Y21600D01*
X23984Y22984D02*
X27216D01*
X23984Y19047D02*
X28600D01*
X23695Y21305D02*
X23984Y21016D01*
X21534Y21305D02*
X23695D01*
X20819Y22020D02*
X21534Y21305D01*
X20819Y22020D02*
Y23948D01*
X21534Y24664D01*
X23695D01*
X23984Y24953D01*
X44502Y19697D02*
X45790Y20985D01*
X39961Y19697D02*
X44502D01*
X39375Y18298D02*
X39380Y18294D01*
X39956Y19702D02*
X39961Y19697D01*
X39380Y18294D02*
X44502D01*
X45790Y20985D02*
Y20990D01*
X44502Y18294D02*
X45795Y17000D01*
X34233Y19702D02*
X39956D01*
X45795Y17000D02*
X45800D01*
X34233Y18298D02*
X39375D01*
X33492Y17279D02*
X33880Y17667D01*
Y17945D01*
X34233Y18298D01*
X33880Y20055D02*
X34233Y19702D01*
X33880Y20055D02*
Y20333D01*
X33000Y20720D02*
X33492D01*
X33880Y20333D01*
X187100Y45900D02*
X188300Y44700D01*
X191398D01*
X187200Y50200D02*
X188400Y51400D01*
X191399D01*
X65000Y5000D02*
X68945D01*
X69298Y5353D01*
X71055Y5000D02*
X75000D01*
X70701Y5353D02*
X71055Y5000D01*
X81155Y20050D02*
X83350D01*
X83500Y19900D01*
X198201Y44700D02*
X201700D01*
X198201Y51400D02*
X201700D01*
X209386Y46614D02*
X212382D01*
X208652Y47348D02*
X209386Y46614D01*
X195502Y47348D02*
X208652D01*
X208651Y48751D02*
X209861Y49961D01*
X195309Y48751D02*
X208651D01*
X209861Y49961D02*
X212382D01*
X194799Y44700D02*
Y46646D01*
X195502Y47348D01*
X194801Y49259D02*
Y51400D01*
Y49259D02*
X195309Y48751D01*
D61*
X35579Y83880D02*
X36341Y84641D01*
X33400Y83880D02*
X35579D01*
X36341Y84641D02*
Y86270D01*
X36570Y86500D01*
X45201Y36882D02*
X45406Y36677D01*
Y34019D02*
X46200Y33225D01*
X45406Y34019D02*
Y36677D01*
X46200Y32900D02*
Y33225D01*
X59100Y68079D02*
X59521Y68500D01*
X61800D01*
X55500Y64479D02*
X59100Y68079D01*
X236700Y46720D02*
X239941Y49961D01*
X236700Y46700D02*
Y46720D01*
X109435Y84421D02*
X109515Y84340D01*
X101880Y84421D02*
X109435D01*
X101800Y84501D02*
X101880Y84421D01*
X178882Y18799D02*
X179000D01*
X178293Y19388D02*
X178882Y18799D01*
X177094Y19388D02*
X178293D01*
X174693Y21789D02*
X177094Y19388D01*
X173581Y21789D02*
X174693D01*
X173000Y22370D02*
X173581Y21789D01*
X32450Y56850D02*
X32500Y56800D01*
X32400Y56900D02*
X32450Y56850D01*
X32400Y61887D02*
X33321Y62808D01*
X27584Y62500D02*
X27700D01*
X27468D02*
X27584D01*
X36475Y22725D02*
X36500Y22700D01*
X35921Y23280D02*
X36475Y22725D01*
X33000Y14720D02*
X36579D01*
X48370Y58630D02*
Y59697D01*
X45586Y62482D02*
X48370Y59697D01*
Y58630D02*
X48600Y58400D01*
X65281Y38074D02*
X65300Y38055D01*
X56519Y38074D02*
X65281D01*
X56500Y38093D02*
X56519Y38074D01*
X56382Y38093D02*
X56500D01*
X44475Y50000D02*
X56382Y38093D01*
X37500Y50000D02*
X44475D01*
X42150Y62650D02*
X42200Y62600D01*
X35879Y62700D02*
X35930Y62650D01*
X39040D02*
X42150D01*
X35930D02*
X39040D01*
X33321Y62808D02*
Y63300D01*
X32400Y56900D02*
Y61887D01*
X29898Y90098D02*
X29900Y90100D01*
X23984Y90098D02*
X29898D01*
X45586Y62482D02*
Y62600D01*
X25067Y64902D02*
X27468Y62500D01*
X23984Y64902D02*
X25067D01*
X40100Y80020D02*
X42595D01*
X43375Y80800D01*
X43700D01*
X40563Y73358D02*
X41681D01*
X40100Y73821D02*
X40563Y73358D01*
X41681D02*
X43111Y71928D01*
X43436D01*
X35285Y72009D02*
X36675Y73400D01*
X37000D01*
X33689Y72009D02*
X35285D01*
X33600Y71921D02*
X33689Y72009D01*
X43643Y15200D02*
X44670Y14172D01*
Y13530D02*
Y14172D01*
X41100Y15200D02*
X43643D01*
X44670Y13530D02*
X44900Y13300D01*
X28477Y15110D02*
X31789Y11798D01*
X41100D01*
X23984Y15110D02*
X28477D01*
X34280Y37000D02*
X38043D01*
X41807D01*
X37500Y45000D02*
X41807Y40693D01*
Y37000D02*
Y40693D01*
X30700Y41500D02*
X31721Y40479D01*
Y37000D02*
Y40479D01*
X28200Y37732D02*
Y38600D01*
X25067Y34598D02*
X28200Y37732D01*
X23984Y34598D02*
X25067D01*
X43517Y23799D02*
X44370Y24653D01*
X41000Y23799D02*
X43517D01*
X44370Y24653D02*
Y25670D01*
X44600Y25900D01*
X33000Y23280D02*
X35921D01*
X36579Y14720D02*
X36600Y14700D01*
D62*
X98200Y54800D02*
Y62125D01*
X83200Y44300D02*
X90900Y52000D01*
X95400D01*
X98200Y54800D01*
X94007Y66319D02*
X98200Y62125D01*
X61200Y44300D02*
X83200D01*
X165000Y31000D02*
X170201D01*
X178819Y22382D01*
X178882Y22201D02*
X179000D01*
X178819Y22264D02*
Y22382D01*
Y22264D02*
X178882Y22201D01*
X56500Y29100D02*
Y34707D01*
X53700Y15800D02*
X57900D01*
X49550Y15850D02*
X53650D01*
X53700Y15800D01*
X49500Y15900D02*
X49550Y15850D01*
X142883Y50383D02*
Y54683D01*
X144200Y56000D01*
X149933D01*
X142500Y50000D02*
X142883Y50383D01*
X164200Y31161D02*
Y41733D01*
X149933Y56000D02*
X164200Y41733D01*
X57900Y20544D02*
X57981D01*
X57800D02*
X57900D01*
X52800Y20607D02*
X56419D01*
X57737D02*
X57800Y20544D01*
X87303Y30955D02*
X89848Y33500D01*
X97000D01*
X87303Y29000D02*
Y30955D01*
X23984Y9402D02*
X29498D01*
X37500Y55000D02*
X50500D01*
X61200Y44300D01*
X90764Y66319D02*
X94007D01*
X90701Y66382D02*
X90764Y66319D01*
X90701Y66382D02*
Y66500D01*
X39040Y62650D02*
Y64260D01*
X36800Y66500D02*
X39040Y64260D01*
X30711Y66500D02*
X36800D01*
X29159Y68051D02*
X30711Y66500D01*
X23984Y68051D02*
X29159D01*
X37500Y58900D02*
X39040Y60440D01*
Y62650D01*
X37500Y55000D02*
Y58900D01*
X19149Y68051D02*
X23984D01*
X16800Y70400D02*
X19149Y68051D01*
X16800Y70400D02*
Y84000D01*
X19749Y86949D01*
X23984D01*
Y31449D02*
X36872D01*
X38043Y32620D02*
Y37000D01*
X36872Y31449D02*
X38043Y32620D01*
X18400Y28423D02*
X21245Y31268D01*
X18400Y15577D02*
X21245Y12732D01*
X18400Y15577D02*
Y28423D01*
X23803Y31268D02*
X23984Y31449D01*
X21245Y31268D02*
X23803D01*
X21245Y12732D02*
X23803D01*
X23984Y12551D01*
X57800Y24056D02*
Y28992D01*
X52700Y24056D02*
Y28392D01*
X53300Y28992D01*
Y29100D01*
X48800D02*
X53300D01*
X55983D02*
X57800D01*
X57876Y29024D02*
X61985D01*
X62058Y28950D02*
X62647D01*
X61985Y29024D02*
X62058Y28950D01*
X57800Y29100D02*
X57876Y29024D01*
X53300Y29100D02*
X55050D01*
X57800Y20607D02*
X57837D01*
X57900Y20544D01*
X53700Y15800D02*
Y15908D01*
X52800Y16808D02*
X53700Y15908D01*
X52800Y16808D02*
Y20607D01*
X57981Y20544D02*
X58580Y19945D01*
X65300D01*
X49550Y15900D02*
X49600Y15850D01*
X29498Y9402D02*
X29500Y9400D01*
X123900Y40600D02*
X124350Y40150D01*
Y33858D02*
Y40150D01*
X239941Y56457D02*
Y61358D01*
X246437Y56457D02*
X251339D01*
X228543D02*
X233445D01*
X228500Y56500D02*
X228543Y56457D01*
X246437Y49961D02*
X251339D01*
X228543D02*
X233445D01*
X228543Y43465D02*
X233445D01*
X246437D02*
X251339D01*
X239941Y38563D02*
Y43465D01*
X131333Y83858D02*
X132392Y82800D01*
X132500D01*
X155650Y79050D02*
Y83858D01*
X155500Y78900D02*
X155650Y79050D01*
X124350Y83858D02*
X131333D01*
D63*
X255000Y95000D02*
D03*
X245000D02*
D03*
X235000D02*
D03*
X225000D02*
D03*
X215000D02*
D03*
X205000D02*
D03*
X195000D02*
D03*
X185000D02*
D03*
X175000D02*
D03*
X165000D02*
D03*
X155000D02*
D03*
X145000D02*
D03*
X135000D02*
D03*
X125000D02*
D03*
X115000D02*
D03*
X105000D02*
D03*
X95000D02*
D03*
X85000D02*
D03*
X75000D02*
D03*
X65000D02*
D03*
X55000D02*
D03*
X35000D02*
D03*
X45000D02*
D03*
X255000Y5000D02*
D03*
X35000D02*
D03*
X45000D02*
D03*
X55000D02*
D03*
X65000D02*
D03*
X75000D02*
D03*
X85000D02*
D03*
X95000D02*
D03*
X105000D02*
D03*
X115000D02*
D03*
X125000D02*
D03*
X135000D02*
D03*
X145000D02*
D03*
X155000D02*
D03*
X165000D02*
D03*
X175000D02*
D03*
X185000D02*
D03*
X195000D02*
D03*
X205000D02*
D03*
X215000D02*
D03*
X225000D02*
D03*
X235000D02*
D03*
X245000D02*
D03*
D64*
X265000Y95000D02*
D03*
Y5000D02*
D03*
D65*
X37500Y55000D02*
D03*
D66*
X142500Y50000D02*
D03*
X37500D02*
D03*
Y45000D02*
D03*
D67*
X137500Y50000D02*
D03*
D68*
X75000Y88400D02*
D03*
X106800Y46500D02*
D03*
X101900Y33500D02*
D03*
X97000D02*
D03*
X106800Y39700D02*
D03*
X97100Y46500D02*
D03*
Y39700D02*
D03*
X102000D02*
D03*
Y46500D02*
D03*
X106700Y33500D02*
D03*
X89882Y72600D02*
D03*
X78400Y54100D02*
D03*
X85200Y16600D02*
D03*
X83500Y19900D02*
D03*
X76700Y20200D02*
D03*
X95000Y60800D02*
D03*
X73200Y16800D02*
D03*
X79500Y47500D02*
D03*
X94900Y56100D02*
D03*
X78600Y58200D02*
D03*
X44900Y13300D02*
D03*
X53700Y15800D02*
D03*
X49500Y15900D02*
D03*
X57900Y15800D02*
D03*
X111800Y46500D02*
D03*
X116500Y33500D02*
D03*
X116600Y46500D02*
D03*
X111700Y33500D02*
D03*
X111800Y39700D02*
D03*
X116600D02*
D03*
X123900Y40600D02*
D03*
X155700Y39900D02*
D03*
X162272Y14800D02*
D03*
X169000Y20000D02*
D03*
X181500Y37000D02*
D03*
X191070Y29730D02*
D03*
X175300Y37900D02*
D03*
X198100Y38200D02*
D03*
X198352Y29911D02*
D03*
X188600Y37900D02*
D03*
X46200Y32900D02*
D03*
X45790Y20990D02*
D03*
X45800Y17000D02*
D03*
X57800Y29100D02*
D03*
X53300D02*
D03*
X48800D02*
D03*
X45200Y69100D02*
D03*
X44600Y25900D02*
D03*
X36555Y14746D02*
D03*
X36475Y22725D02*
D03*
X243258Y32392D02*
D03*
X236565D02*
D03*
X246678Y67515D02*
D03*
X240000Y67500D02*
D03*
X250000Y73000D02*
D03*
X262990Y29872D02*
D03*
X251382Y43421D02*
D03*
Y56413D02*
D03*
X262990Y39911D02*
D03*
X251382Y49917D02*
D03*
X262990Y53297D02*
D03*
Y46604D02*
D03*
Y33219D02*
D03*
Y36565D02*
D03*
X249951Y32392D02*
D03*
X262990Y43258D02*
D03*
Y49951D02*
D03*
X205300Y51300D02*
D03*
X243200Y53200D02*
D03*
X228500Y50004D02*
D03*
Y43508D02*
D03*
X239898Y38520D02*
D03*
X239984Y61402D02*
D03*
X236700Y53200D02*
D03*
X228500Y56500D02*
D03*
X236700Y46700D02*
D03*
X223179Y32392D02*
D03*
X229872D02*
D03*
X216486D02*
D03*
X243200Y46700D02*
D03*
X259300Y73200D02*
D03*
X243297Y73010D02*
D03*
X246200Y89500D02*
D03*
X254300Y88700D02*
D03*
X259800Y81900D02*
D03*
X262990Y73376D02*
D03*
X250600Y88800D02*
D03*
X256100Y27300D02*
D03*
X252680Y26676D02*
D03*
X206692Y22411D02*
D03*
X219852Y26911D02*
D03*
X226545D02*
D03*
X233238D02*
D03*
X246624D02*
D03*
X239931D02*
D03*
X264597Y18316D02*
D03*
X204390Y75621D02*
D03*
X219892Y67529D02*
D03*
X226585D02*
D03*
X233278D02*
D03*
X223218Y73010D02*
D03*
X216526D02*
D03*
X236604D02*
D03*
X229911D02*
D03*
X262990Y70029D02*
D03*
Y63337D02*
D03*
Y59990D02*
D03*
Y66683D02*
D03*
Y26526D02*
D03*
Y56644D02*
D03*
X31400Y77700D02*
D03*
X35400Y77900D02*
D03*
X36570Y86500D02*
D03*
X29473Y9427D02*
D03*
X192400Y66800D02*
D03*
X181578Y76600D02*
D03*
X176400Y62200D02*
D03*
X181200Y63300D02*
D03*
X97600Y81400D02*
D03*
X132500Y82800D02*
D03*
X82800Y84400D02*
D03*
X70200Y88500D02*
D03*
X48600Y58400D02*
D03*
X32450Y56850D02*
D03*
X46000Y74100D02*
D03*
X46900Y85900D02*
D03*
X43700Y80800D02*
D03*
X37000Y73400D02*
D03*
X46000Y78100D02*
D03*
X43436Y71928D02*
D03*
X30700Y41500D02*
D03*
X28200Y38600D02*
D03*
X27584Y62500D02*
D03*
X186500Y70900D02*
D03*
X183000Y44847D02*
D03*
X187200Y50200D02*
D03*
X187100Y45900D02*
D03*
X201700Y44700D02*
D03*
Y51400D02*
D03*
X186600Y63400D02*
D03*
X183100Y51100D02*
D03*
X192100Y73600D02*
D03*
X205200Y45047D02*
D03*
X157200Y61000D02*
D03*
X166300Y60200D02*
D03*
X155650Y79050D02*
D03*
X160800Y62100D02*
D03*
X151200Y60100D02*
D03*
X166800Y79200D02*
D03*
X171900Y62100D02*
D03*
X148400Y52300D02*
D03*
X68900Y74700D02*
D03*
X72900D02*
D03*
X68900Y79200D02*
D03*
X72400Y65300D02*
D03*
X61300Y49900D02*
D03*
X64500Y54700D02*
D03*
X72900Y79200D02*
D03*
X61800Y68500D02*
D03*
X29898Y90098D02*
D03*
X97100Y87400D02*
D03*
M02*
