G04*
G04 #@! TF.GenerationSoftware,Altium Limited,Altium Designer,25.4.2 (15)*
G04*
G04 Layer_Physical_Order=4*
G04 Layer_Color=16711680*
%FSLAX25Y25*%
%MOIN*%
G70*
G04*
G04 #@! TF.SameCoordinates,6D7273DC-0862-4ADB-9A81-04C38C25D803*
G04*
G04*
G04 #@! TF.FilePolarity,Positive*
G04*
G01*
G75*
%ADD11C,0.00600*%
G04:AMPARAMS|DCode=53|XSize=39.37mil|YSize=70.87mil|CornerRadius=19.68mil|HoleSize=0mil|Usage=FLASHONLY|Rotation=270.000|XOffset=0mil|YOffset=0mil|HoleType=Round|Shape=RoundedRectangle|*
%AMROUNDEDRECTD53*
21,1,0.03937,0.03150,0,0,270.0*
21,1,0.00000,0.07087,0,0,270.0*
1,1,0.03937,-0.01575,0.00000*
1,1,0.03937,-0.01575,0.00000*
1,1,0.03937,0.01575,0.00000*
1,1,0.03937,0.01575,0.00000*
%
%ADD53ROUNDEDRECTD53*%
G04:AMPARAMS|DCode=54|XSize=39.37mil|YSize=86.61mil|CornerRadius=19.68mil|HoleSize=0mil|Usage=FLASHONLY|Rotation=270.000|XOffset=0mil|YOffset=0mil|HoleType=Round|Shape=RoundedRectangle|*
%AMROUNDEDRECTD54*
21,1,0.03937,0.04724,0,0,270.0*
21,1,0.00000,0.08661,0,0,270.0*
1,1,0.03937,-0.02362,0.00000*
1,1,0.03937,-0.02362,0.00000*
1,1,0.03937,0.02362,0.00000*
1,1,0.03937,0.02362,0.00000*
%
%ADD54ROUNDEDRECTD54*%
%ADD60C,0.00603*%
%ADD63C,0.06400*%
%ADD64R,0.06400X0.06400*%
%ADD65R,0.04000X0.04000*%
%ADD66C,0.04000*%
%ADD67R,0.04000X0.04000*%
%ADD68C,0.02400*%
%ADD69C,0.04000*%
%ADD77C,0.01000*%
D11*
X75068Y88332D02*
X81937D01*
X75000Y88400D02*
X75068Y88332D01*
X81937D02*
X83818D01*
X166258Y69600D02*
X180066D01*
X180894Y71600D02*
X181595Y70900D01*
X180766Y68900D02*
X184682D01*
X165429Y67600D02*
X179238D01*
X179938Y66900D02*
X183100D01*
X179238Y67600D02*
X179938Y66900D01*
X164601Y65600D02*
X173379D01*
X54800Y77900D02*
X59100Y82200D01*
X88163Y69400D02*
X100125D01*
X161228Y52300D02*
X166328Y57400D01*
X206700D01*
X245000Y5000D02*
Y10064D01*
X206700Y57400D02*
X228280Y35820D01*
X245000Y10064D02*
X259363Y24427D01*
X255680Y35820D02*
X259363Y32137D01*
X228280Y35820D02*
X255680D01*
X79307Y90693D02*
X79600Y90400D01*
X75000Y95000D02*
X79307Y90693D01*
X86655Y70908D02*
X88163Y69400D01*
X204937Y70921D02*
X207765D01*
X213886Y64800D01*
X192101Y78100D02*
X199280Y70921D01*
X79683Y63900D02*
X102772D01*
X77983Y62200D02*
X79683Y63900D01*
X59100Y62200D02*
X77983D01*
X86655Y70908D02*
Y85495D01*
X54800Y66500D02*
Y77900D01*
X95873Y5873D02*
Y8773D01*
X109900Y22800D01*
X154301Y30700D02*
X161501Y37900D01*
X84880Y90302D02*
X109682Y65500D01*
X185382Y68200D02*
X191000D01*
X119400Y17800D02*
X155543D01*
X259363Y24427D02*
Y32137D01*
X148400Y52300D02*
X161228D01*
X155400Y62800D02*
X157200Y61000D01*
X99753Y72600D02*
X109553Y62800D01*
X181595Y70900D02*
X186500D01*
X89882Y72600D02*
X99753D01*
X167086Y71600D02*
X180894D01*
X83818Y88332D02*
X86655Y85495D01*
X191000Y68200D02*
X192400Y66800D01*
X180066Y69600D02*
X180766Y68900D01*
X188850Y20164D02*
X200400D01*
X213600Y15700D02*
X227636D01*
X166100Y22700D02*
X200107D01*
X208043Y86321D02*
X208065Y86300D01*
X170657Y16314D02*
X185001D01*
X223179Y24879D02*
Y32392D01*
X166043Y11700D02*
X170657Y16314D01*
X115000Y13400D02*
X119400Y17800D01*
X209743Y17500D02*
X211943Y19700D01*
X204851Y16164D02*
X206186Y17500D01*
X189072Y88100D02*
X196243D01*
X205707Y28300D02*
X218464D01*
X222000Y23700D02*
X223179Y24879D01*
X207843Y13500D02*
X211400D01*
X185001Y16314D02*
X188850Y20164D01*
X218464Y28300D02*
X219852Y26911D01*
X115000Y5000D02*
Y13400D01*
X194700Y38200D02*
X198100D01*
X190692Y29730D02*
X191070D01*
X187172Y90000D02*
X189072Y88100D01*
X189662Y28700D02*
X190692Y29730D01*
X110372Y56300D02*
X162400D01*
X166300Y60200D01*
X163773Y63600D02*
X170400D01*
X54800Y66500D02*
X59100Y62200D01*
X109553Y62800D02*
X155400D01*
X170400Y63600D02*
X171900Y62100D01*
X171172Y86000D02*
X185515D01*
X165272Y24700D02*
X199279D01*
X165000Y5000D02*
X172314Y12314D01*
X194586Y84100D02*
X198365Y80321D01*
X125000Y5000D02*
Y12000D01*
X172314Y12314D02*
X186657D01*
X88533Y6033D02*
X107900Y25400D01*
X186586Y82100D02*
X193758D01*
X184686Y84000D02*
X186586Y82100D01*
X102772Y63900D02*
X110372Y56300D01*
X208672Y11500D02*
X212300D01*
X185515Y86000D02*
X187415Y84100D01*
X171486Y14314D02*
X185829D01*
X225699Y5699D02*
X228948D01*
X209500Y9500D02*
X213200D01*
X246700Y17900D02*
X249951Y21151D01*
Y32392D01*
X215400Y11700D02*
X227775D01*
X169072Y88100D02*
X171172Y86000D01*
X166872Y9700D02*
X171486Y14314D01*
X212300Y11500D02*
X214500Y13700D01*
X225000Y80300D02*
X226585Y78715D01*
X204730Y78321D02*
X204751Y78300D01*
X226585Y67529D02*
Y78715D01*
X180000Y90000D02*
X187172D01*
X200022Y84321D02*
X207215D01*
X151900Y88100D02*
X159072D01*
X246624Y20652D02*
Y26911D01*
X206971Y32392D02*
X216486D01*
X245872Y19900D02*
X246624Y20652D01*
X199279Y24700D02*
X206971Y32392D01*
X205000Y5000D02*
X209500Y9500D01*
X210572Y15500D02*
X212772Y17700D01*
X229872Y23593D02*
Y32392D01*
X205679Y14164D02*
X207015Y15500D01*
X225979Y19700D02*
X229872Y23593D01*
X219700Y9700D02*
X226947D01*
X185758Y80100D02*
X192929D01*
X226947Y9700D02*
X226957Y9690D01*
X208065Y86300D02*
X215215D01*
X215000Y5000D02*
X219700Y9700D01*
X243258Y23058D02*
Y32392D01*
X226957Y9690D02*
X230110D01*
X59100Y82200D02*
X65000Y88100D01*
Y95000D01*
X173379Y65600D02*
X176400Y62579D01*
X125000Y12000D02*
X128800Y15800D01*
X176400Y62200D02*
Y62579D01*
X205765Y72921D02*
X216437D01*
X160243Y84100D02*
X162343Y82000D01*
X199280Y70921D02*
X204936D01*
X183029Y80000D02*
X184930Y78100D01*
X250000Y73000D02*
Y80000D01*
X235000Y95000D02*
X250000Y80000D01*
X240000Y67500D02*
Y78672D01*
X230372Y88300D02*
X240000Y78672D01*
X159072Y88100D02*
X163172Y84000D01*
X155000Y95000D02*
X161900Y88100D01*
X219000Y76300D02*
X219892Y75408D01*
X206386Y82321D02*
X206408Y82300D01*
X219892Y67529D02*
Y75408D01*
X189900Y90100D02*
X197072D01*
X198365Y80321D02*
X205558D01*
X187415Y84100D02*
X194586D01*
X188243Y86100D02*
X195415D01*
X207215Y84321D02*
X207236Y84300D01*
X214386D01*
X204751Y78300D02*
X211901D01*
X165000Y95000D02*
X172000Y88000D01*
X186343D01*
X185000Y95000D02*
X189900Y90100D01*
X229543Y86300D02*
X236604Y79239D01*
Y73010D02*
Y79239D01*
X200850Y86321D02*
X208043D01*
X197072Y90100D02*
X200850Y86321D01*
X195000Y95000D02*
X201679Y88321D01*
X216043Y88300D02*
X218043Y86300D01*
X209700Y90300D02*
X216872D01*
X228715Y84300D02*
X233278Y79737D01*
X216872Y90300D02*
X218872Y88300D01*
X218043Y86300D02*
X229543D01*
X205579Y80300D02*
X212730D01*
X205000Y95000D02*
X209700Y90300D01*
X233278Y67529D02*
Y79737D01*
X213558Y82300D02*
X215558Y80300D01*
X205558Y80321D02*
X205579Y80300D01*
X215558D02*
X225000D01*
X137900Y82100D02*
X159415D01*
X165186Y73500D02*
X167086Y71600D01*
X119350Y67500D02*
X162701D01*
X103700Y30700D02*
X154301D01*
X52614Y12614D02*
X85614D01*
X161129Y34700D02*
X179274D01*
X155215Y20300D02*
X163615Y28700D01*
X85614Y12614D02*
X103700Y30700D01*
X85000Y5000D02*
X86033Y6033D01*
X105000Y5000D02*
Y12700D01*
X161501Y37900D02*
X175300D01*
X86033Y6033D02*
X88533D01*
X143700Y13700D02*
X157100D01*
X128800Y15800D02*
X156372D01*
X135000Y5000D02*
X143700Y13700D01*
X145000Y5000D02*
X151700Y11700D01*
X166043D01*
X156372Y15800D02*
X165272Y24700D01*
X166800Y79200D02*
X167179D01*
X161958Y32700D02*
X183400D01*
X167979Y80000D02*
X183029D01*
X167179Y79200D02*
X167979Y80000D01*
X195415Y86100D02*
X199193Y82321D01*
X186343Y88000D02*
X188243Y86100D01*
X125000Y95000D02*
X137900Y82100D01*
X183400Y32700D02*
X188600Y37900D01*
X164358Y71500D02*
X166258Y69600D01*
X105000Y95000D02*
X128500Y71500D01*
X45000Y5000D02*
X52614Y12614D01*
X109682Y65500D02*
X161873D01*
X79600Y90400D02*
X84036D01*
X179274Y34700D02*
X181500Y36926D01*
X200107Y22700D02*
X205707Y28300D01*
X189679Y18164D02*
X204022D01*
X181500Y36926D02*
Y37000D01*
X225150Y21700D02*
X226545Y23095D01*
X105272Y28100D02*
X154530D01*
X226545Y23095D02*
Y26911D01*
X228948Y5699D02*
X241149Y17900D01*
X204022Y18164D02*
X205358Y19500D01*
X214492Y23700D02*
X222000D01*
X213081Y25111D02*
X214492Y23700D01*
X105000Y12700D02*
X112600Y20300D01*
X205358Y19500D02*
X208915D01*
X211115Y21700D01*
X157100Y13700D02*
X166100Y22700D01*
X205347Y25111D02*
X213081D01*
X211115Y21700D02*
X225150D01*
X185829Y14314D02*
X189679Y18164D01*
X161873Y65500D02*
X163773Y63600D01*
X200400Y20164D02*
X205347Y25111D01*
X163615Y28700D02*
X189662D01*
X197537Y78321D02*
X204730D01*
X162786Y30700D02*
X187200D01*
X154530Y28100D02*
X161129Y34700D01*
X241233Y64800D02*
X243948Y67515D01*
X246678D01*
X155543Y17800D02*
X164443Y26700D01*
X204936Y70921D02*
X204937Y70921D01*
X95000Y5000D02*
X95873Y5873D01*
X163172Y84000D02*
X184686D01*
X87786Y10614D02*
X105272Y28100D01*
X184930Y78100D02*
X192101D01*
X195141Y26700D02*
X198352Y29911D01*
X154886Y22800D02*
X162786Y30700D01*
X164443Y26700D02*
X195141D01*
X109900Y22800D02*
X154886D01*
X136500Y73500D02*
X165186D01*
X115000Y95000D02*
X136500Y73500D01*
X184682Y68900D02*
X185382Y68200D01*
X228464Y13700D02*
X238664Y23900D01*
X239931Y24486D02*
Y26911D01*
X238664Y23900D02*
X239345D01*
X186657Y12314D02*
X190507Y16164D01*
X204851D01*
X239345Y23900D02*
X239931Y24486D01*
X214386Y84300D02*
X216386Y82300D01*
X206408D02*
X213558D01*
X215215Y86300D02*
X217215Y84300D01*
X229911Y73010D02*
Y79089D01*
X183858Y82000D02*
X185758Y80100D01*
X216386Y82300D02*
X226700D01*
X216437Y72921D02*
X216526Y73010D01*
X55000Y5000D02*
X60614Y10614D01*
X226700Y82300D02*
X229911Y79089D01*
X223218Y73010D02*
Y77082D01*
X217215Y84300D02*
X228715D01*
X135000Y95000D02*
X145900Y84100D01*
X199193Y82321D02*
X206386D01*
X60614Y10614D02*
X87786D01*
X196243Y88100D02*
X200022Y84321D01*
X222000Y78300D02*
X223218Y77082D01*
X241149Y17900D02*
X246700D01*
X225000Y5000D02*
X225699Y5699D01*
X243233Y73000D02*
Y78267D01*
X183100Y66900D02*
X186600Y63400D01*
X154658Y25400D02*
X161958Y32700D01*
X107900Y25400D02*
X154658D01*
X112600Y20300D02*
X155215D01*
X100125Y69400D02*
X109425Y60100D01*
X151200D01*
X219700Y90300D02*
X231200D01*
X215000Y95000D02*
X219700Y90300D01*
X231200D02*
X243233Y78267D01*
X218872Y88300D02*
X230372D01*
X187200Y30700D02*
X194700Y38200D01*
X85000Y95000D02*
X95600Y84400D01*
X192929Y80100D02*
X200108Y72922D01*
X128500Y71500D02*
X164358D01*
X95000Y95000D02*
X120500Y69500D01*
X167915Y73600D02*
X192100D01*
X162701Y67500D02*
X164601Y65600D01*
X205765Y72922D02*
X205765Y72921D01*
X213886Y64800D02*
X241233D01*
X163530Y69500D02*
X165429Y67600D01*
X120500Y69500D02*
X163530D01*
X159415Y82100D02*
X167915Y73600D01*
X200108Y72922D02*
X205765D01*
X193758Y82100D02*
X197537Y78321D01*
X211901Y78300D02*
X213901Y76300D01*
X161900Y88100D02*
X169072D01*
X213901Y76300D02*
X219000D01*
X145000Y95000D02*
X151900Y88100D01*
X95600Y84400D02*
X102450D01*
X212730Y80300D02*
X214729Y78300D01*
X222000D01*
X102450Y84400D02*
X119350Y67500D01*
X175000Y95000D02*
X180000Y90000D01*
X208893Y88300D02*
X216043D01*
X201679Y88321D02*
X208872D01*
X208893Y88300D01*
X207336Y10164D02*
X208672Y11500D01*
X236565Y24629D02*
Y32392D01*
X226807Y17700D02*
X233238Y24131D01*
X161161Y9700D02*
X166872D01*
X233238Y24131D02*
Y26911D01*
X200164Y10164D02*
X207336D01*
X207015Y15500D02*
X210572D01*
X227786Y11690D02*
X229282D01*
X227775Y11700D02*
X227786Y11690D01*
X185000Y5000D02*
X192164Y12164D01*
X242100Y21900D02*
X243258Y23058D01*
X240321Y19900D02*
X245872D01*
X180314Y10314D02*
X187486D01*
X239492Y21900D02*
X242100D01*
X195000Y5000D02*
X200164Y10164D01*
X211943Y19700D02*
X225979D01*
X192164Y12164D02*
X206507D01*
X162343Y82000D02*
X183858D01*
X206507Y12164D02*
X207843Y13500D01*
X191336Y14164D02*
X205679D01*
X227636Y15700D02*
X236565Y24629D01*
X145900Y84100D02*
X160243D01*
X155000Y5000D02*
X156461D01*
X212772Y17700D02*
X226807D01*
X214500Y13700D02*
X228464D01*
X213200Y9500D02*
X215400Y11700D01*
X156461Y5000D02*
X161161Y9700D01*
X230110Y9690D02*
X240321Y19900D01*
X175000Y5000D02*
X180314Y10314D01*
X187486D02*
X191336Y14164D01*
X206186Y17500D02*
X209743D01*
X211400Y13500D02*
X213600Y15700D01*
X229282Y11690D02*
X239492Y21900D01*
D53*
X21721Y94508D02*
D03*
Y39008D02*
D03*
Y60492D02*
D03*
Y4992D02*
D03*
D54*
X5972Y94508D02*
D03*
Y60492D02*
D03*
Y39008D02*
D03*
Y4992D02*
D03*
D60*
X122197Y43712D02*
G03*
X122198Y43714I-992J992D01*
G01*
X34102Y79856D02*
X35795Y81550D01*
X31400Y77800D02*
X32699Y79098D01*
X35214Y82953D02*
X37031D01*
X32699Y80437D02*
X35214Y82953D01*
X35300Y77900D02*
X35400D01*
X34102Y79098D02*
Y79856D01*
X31400Y77700D02*
Y77800D01*
X34102Y79098D02*
X35300Y77900D01*
X32699Y79098D02*
Y80437D01*
X35795Y81550D02*
X36450D01*
X37031Y82953D02*
X43183Y76802D01*
X36450Y81550D02*
X42601Y75398D01*
X44701D02*
X46000Y74100D01*
X44701Y76802D02*
X46000Y78100D01*
X42601Y75398D02*
X44701D01*
X43183Y76802D02*
X44701D01*
X145681Y45703D02*
X148678Y48700D01*
X149259Y47297D02*
X185703D01*
X187100Y45900D01*
X146262Y44300D02*
X149259Y47297D01*
X185661Y48700D02*
X187161Y50200D01*
X148678Y48700D02*
X185661D01*
X187161Y50200D02*
X187200D01*
X122198Y43714D02*
X122784Y44300D01*
X146262D01*
X119904Y43404D02*
X122203Y45703D01*
X145681D01*
X120486Y42002D02*
X122197Y43712D01*
X94133Y42002D02*
X120486D01*
X146980Y35996D02*
X153186Y42202D01*
X92096Y35996D02*
X146980D01*
X91514Y37398D02*
X146398D01*
X153186Y42202D02*
X175214D01*
X146398Y37398D02*
X152604Y43604D01*
X175795D01*
X93552Y43404D02*
X119904D01*
X45790Y20990D02*
X45795D01*
X47089Y19697D01*
X69844D01*
X93552Y43404D01*
X45800Y17000D02*
Y17005D01*
X47089Y18294D01*
X70425D01*
X94133Y42002D01*
X176616Y40800D02*
X190177D01*
X175214Y42202D02*
X176616Y40800D01*
X177197Y42203D02*
X189596D01*
X175795Y43604D02*
X177197Y42203D01*
X190177Y40800D02*
X196726Y47348D01*
X189596Y42203D02*
X196145Y48752D01*
X201700Y44700D02*
Y46500D01*
X200851Y47348D02*
X201700Y46500D01*
X196726Y47348D02*
X200851D01*
X201665Y49665D02*
Y51365D01*
X200751Y48752D02*
X201665Y49665D01*
Y51365D02*
X201700Y51400D01*
X196145Y48752D02*
X200751D01*
X79399Y25283D02*
X91514Y37398D01*
X80801Y24701D02*
X92096Y35996D01*
X80801Y20403D02*
Y24701D01*
X79399Y20403D02*
Y25283D01*
X76850Y20050D02*
X79045D01*
X79399Y20403D01*
X76700Y20200D02*
X76850Y20050D01*
X81305Y19900D02*
X83500D01*
X80801Y20403D02*
X81305Y19900D01*
D63*
X255000Y95000D02*
D03*
X245000D02*
D03*
X235000D02*
D03*
X225000D02*
D03*
X215000D02*
D03*
X205000D02*
D03*
X195000D02*
D03*
X185000D02*
D03*
X175000D02*
D03*
X165000D02*
D03*
X155000D02*
D03*
X145000D02*
D03*
X135000D02*
D03*
X125000D02*
D03*
X115000D02*
D03*
X105000D02*
D03*
X95000D02*
D03*
X85000D02*
D03*
X75000D02*
D03*
X65000D02*
D03*
X55000D02*
D03*
X35000D02*
D03*
X45000D02*
D03*
X255000Y5000D02*
D03*
X35000D02*
D03*
X45000D02*
D03*
X55000D02*
D03*
X65000D02*
D03*
X75000D02*
D03*
X85000D02*
D03*
X95000D02*
D03*
X105000D02*
D03*
X115000D02*
D03*
X125000D02*
D03*
X135000D02*
D03*
X145000D02*
D03*
X155000D02*
D03*
X165000D02*
D03*
X175000D02*
D03*
X185000D02*
D03*
X195000D02*
D03*
X205000D02*
D03*
X215000D02*
D03*
X225000D02*
D03*
X235000D02*
D03*
X245000D02*
D03*
D64*
X265000Y95000D02*
D03*
Y5000D02*
D03*
D65*
X37500Y55000D02*
D03*
D66*
X142500Y50000D02*
D03*
X37500D02*
D03*
Y45000D02*
D03*
D67*
X137500Y50000D02*
D03*
D68*
X75000Y88400D02*
D03*
X106800Y46500D02*
D03*
X101900Y33500D02*
D03*
X97000D02*
D03*
X106800Y39700D02*
D03*
X97100Y46500D02*
D03*
Y39700D02*
D03*
X102000D02*
D03*
Y46500D02*
D03*
X106700Y33500D02*
D03*
X89882Y72600D02*
D03*
X78400Y54100D02*
D03*
X85200Y16600D02*
D03*
X83500Y19900D02*
D03*
X76700Y20200D02*
D03*
X95000Y60800D02*
D03*
X73200Y16800D02*
D03*
X79500Y47500D02*
D03*
X94900Y56100D02*
D03*
X78600Y58200D02*
D03*
X44900Y13300D02*
D03*
X53700Y15800D02*
D03*
X49500Y15900D02*
D03*
X57900Y15800D02*
D03*
X111800Y46500D02*
D03*
X116500Y33500D02*
D03*
X116600Y46500D02*
D03*
X111700Y33500D02*
D03*
X111800Y39700D02*
D03*
X116600D02*
D03*
X123900Y40600D02*
D03*
X155700Y39900D02*
D03*
X162272Y14800D02*
D03*
X169000Y20000D02*
D03*
X181500Y37000D02*
D03*
X191070Y29730D02*
D03*
X175300Y37900D02*
D03*
X198100Y38200D02*
D03*
X198352Y29911D02*
D03*
X188600Y37900D02*
D03*
X46200Y32900D02*
D03*
X45790Y20990D02*
D03*
X45800Y17000D02*
D03*
X57800Y29100D02*
D03*
X53300D02*
D03*
X48800D02*
D03*
X45200Y69100D02*
D03*
X44600Y25900D02*
D03*
X36555Y14746D02*
D03*
X36475Y22725D02*
D03*
X243258Y32392D02*
D03*
X236565D02*
D03*
X246678Y67515D02*
D03*
X240000Y67500D02*
D03*
X250000Y73000D02*
D03*
X262990Y29872D02*
D03*
X251382Y43421D02*
D03*
Y56413D02*
D03*
X262990Y39911D02*
D03*
X251382Y49917D02*
D03*
X262990Y53297D02*
D03*
Y46604D02*
D03*
Y33219D02*
D03*
Y36565D02*
D03*
X249951Y32392D02*
D03*
X262990Y43258D02*
D03*
Y49951D02*
D03*
X205300Y51300D02*
D03*
X243200Y53200D02*
D03*
X228500Y50004D02*
D03*
Y43508D02*
D03*
X239898Y38520D02*
D03*
X239984Y61402D02*
D03*
X236700Y53200D02*
D03*
X228500Y56500D02*
D03*
X236700Y46700D02*
D03*
X223179Y32392D02*
D03*
X229872D02*
D03*
X216486D02*
D03*
X243200Y46700D02*
D03*
X259300Y73200D02*
D03*
X243297Y73010D02*
D03*
X246200Y89500D02*
D03*
X254300Y88700D02*
D03*
X259800Y81900D02*
D03*
X262990Y73376D02*
D03*
X250600Y88800D02*
D03*
X256100Y27300D02*
D03*
X252680Y26676D02*
D03*
X206692Y22411D02*
D03*
X219852Y26911D02*
D03*
X226545D02*
D03*
X233238D02*
D03*
X246624D02*
D03*
X239931D02*
D03*
X264597Y18316D02*
D03*
X204390Y75621D02*
D03*
X219892Y67529D02*
D03*
X226585D02*
D03*
X233278D02*
D03*
X223218Y73010D02*
D03*
X216526D02*
D03*
X236604D02*
D03*
X229911D02*
D03*
X262990Y70029D02*
D03*
Y63337D02*
D03*
Y59990D02*
D03*
Y66683D02*
D03*
Y26526D02*
D03*
Y56644D02*
D03*
X31400Y77700D02*
D03*
X35400Y77900D02*
D03*
X36570Y86500D02*
D03*
X29473Y9427D02*
D03*
X192400Y66800D02*
D03*
X181578Y76600D02*
D03*
X176400Y62200D02*
D03*
X181200Y63300D02*
D03*
X97600Y81400D02*
D03*
X132500Y82800D02*
D03*
X82800Y84400D02*
D03*
X70200Y88500D02*
D03*
X48600Y58400D02*
D03*
X32450Y56850D02*
D03*
X46000Y74100D02*
D03*
X46900Y85900D02*
D03*
X43700Y80800D02*
D03*
X37000Y73400D02*
D03*
X46000Y78100D02*
D03*
X43436Y71928D02*
D03*
X30700Y41500D02*
D03*
X28200Y38600D02*
D03*
X27584Y62500D02*
D03*
X186500Y70900D02*
D03*
X183000Y44847D02*
D03*
X187200Y50200D02*
D03*
X187100Y45900D02*
D03*
X201700Y44700D02*
D03*
Y51400D02*
D03*
X186600Y63400D02*
D03*
X183100Y51100D02*
D03*
X192100Y73600D02*
D03*
X205200Y45047D02*
D03*
X157200Y61000D02*
D03*
X166300Y60200D02*
D03*
X155650Y79050D02*
D03*
X160800Y62100D02*
D03*
X151200Y60100D02*
D03*
X166800Y79200D02*
D03*
X171900Y62100D02*
D03*
X148400Y52300D02*
D03*
X68900Y74700D02*
D03*
X72900D02*
D03*
X68900Y79200D02*
D03*
X72400Y65300D02*
D03*
X61300Y49900D02*
D03*
X64500Y54700D02*
D03*
X72900Y79200D02*
D03*
X61800Y68500D02*
D03*
X29898Y90098D02*
D03*
X97100Y87400D02*
D03*
D69*
X76600Y70200D02*
X82800Y76400D01*
Y84400D01*
X63500Y70200D02*
X76600D01*
X61800Y68500D02*
X63500Y70200D01*
X55000Y88900D02*
Y95000D01*
X51200Y67960D02*
Y85100D01*
X55000Y88900D01*
X42857Y59618D02*
X51200Y67960D01*
X37500Y50000D02*
X42500D01*
X42857D02*
Y59618D01*
Y50000D02*
X61200D01*
D77*
X84036Y90400D02*
G03*
X84880Y90302I964J4600D01*
G01*
M02*
