G04*
G04 #@! TF.GenerationSoftware,Altium Limited,Altium Designer,25.4.2 (15)*
G04*
G04 Layer_Color=65535*
%FSLAX25Y25*%
%MOIN*%
G70*
G04*
G04 #@! TF.SameCoordinates,6D7273DC-0862-4ADB-9A81-04C38C25D803*
G04*
G04*
G04 #@! TF.FilePolarity,Positive*
G04*
G01*
G75*
%ADD10C,0.00984*%
%ADD11C,0.00600*%
%ADD12C,0.00787*%
%ADD13C,0.00500*%
%ADD14R,0.05600X0.01500*%
D10*
X161358Y66142D02*
G03*
X161358Y66142I-492J0D01*
G01*
X29004Y90079D02*
G03*
X29004Y90079I-492J0D01*
G01*
Y34579D02*
G03*
X29004Y34579I-492J0D01*
G01*
X78492Y88500D02*
G03*
X78492Y88500I-492J0D01*
G01*
X65792Y41992D02*
G03*
X65792Y41992I-492J0D01*
G01*
X161358Y16142D02*
G03*
X161358Y16142I-492J0D01*
G01*
D11*
X225000Y9300D02*
Y10800D01*
X58000Y55200D02*
Y62800D01*
X62400D01*
Y55200D02*
Y62800D01*
X58000Y55200D02*
X62400D01*
X63100Y55300D02*
Y62700D01*
X67300D01*
Y55300D02*
Y62700D01*
X63100Y55300D02*
X67300D01*
X75000Y9300D02*
Y10800D01*
X125000Y9300D02*
Y10800D01*
X175000Y9300D02*
Y10800D01*
X225000Y89200D02*
Y90700D01*
X175000Y89200D02*
Y90700D01*
X125000Y89200D02*
Y90700D01*
X31400Y69880D02*
X32525D01*
X31300Y69980D02*
X31400Y69880D01*
X31300D02*
Y76079D01*
X34775Y69880D02*
X35900D01*
Y76079D01*
X32525Y69880D02*
X34775D01*
X34675Y76079D02*
X35800D01*
X32425D02*
X34675D01*
X31300D02*
X32425D01*
X47400Y66000D02*
Y70200D01*
Y66000D02*
X54800D01*
Y70200D01*
X47400D02*
X54800D01*
X75000Y89200D02*
Y90700D01*
X85200Y59300D02*
X92800D01*
X85200D02*
Y63700D01*
X92800D01*
Y59300D02*
Y63700D01*
X85200Y68700D02*
X92800D01*
Y64300D02*
Y68700D01*
X85200Y64300D02*
X92800D01*
X85200D02*
Y68700D01*
Y58700D02*
X92800D01*
Y54300D02*
Y58700D01*
X85200Y54300D02*
X92800D01*
X85200D02*
Y58700D01*
X37700Y63875D02*
Y65000D01*
Y61625D02*
Y63875D01*
Y60500D02*
Y61625D01*
X31500Y61525D02*
Y63775D01*
Y60400D02*
X37700D01*
X31500D02*
Y61525D01*
Y65000D02*
X37700D01*
X31500Y64900D02*
X31600Y65000D01*
X31500Y63775D02*
Y64900D01*
X47400Y80800D02*
X55000D01*
Y76400D02*
Y80800D01*
X47400Y76400D02*
X55000D01*
X47400D02*
Y80800D01*
Y75800D02*
X55000D01*
Y71400D02*
Y75800D01*
X47400Y71400D02*
X55000D01*
X47400D02*
Y75800D01*
X47593Y60500D02*
Y64700D01*
X40193D02*
X47593D01*
X40193Y60500D02*
Y64700D01*
Y60500D02*
X47593D01*
X42300Y68321D02*
Y75920D01*
X37900Y68321D02*
X42300D01*
X37900D02*
Y75920D01*
X42300D01*
X37900Y77921D02*
Y85520D01*
X42300D01*
Y77921D02*
Y85520D01*
X37900Y77921D02*
X42300D01*
X34475Y85700D02*
X35600D01*
X35700Y85600D01*
Y79500D02*
Y85700D01*
X31100D02*
X32225D01*
X31100Y79500D02*
Y85700D01*
X32225D02*
X34475D01*
X31200Y79500D02*
X32325D01*
X34575D01*
X35700D01*
X47200Y34900D02*
Y39100D01*
X39800D02*
X47200D01*
X39800Y34900D02*
Y39100D01*
Y34900D02*
X47200D01*
X162900Y63300D02*
X167100D01*
Y70700D01*
X162900D02*
X167100D01*
X162900Y63300D02*
Y70700D01*
X70099Y48800D02*
X77699D01*
X70099Y53200D02*
X77699D01*
Y48800D02*
Y53200D01*
X207300Y12800D02*
Y17200D01*
X199700D02*
X207300D01*
X199700Y12800D02*
Y17200D01*
Y12800D02*
X207300D01*
X99700Y68500D02*
X104100D01*
X99700Y60900D02*
Y68500D01*
Y60900D02*
X104100D01*
Y68500D01*
X99600Y79000D02*
X104000D01*
Y86600D01*
X99600D02*
X104000D01*
X99600Y79000D02*
Y86600D01*
X260800Y83400D02*
X268200D01*
X260800D02*
Y87600D01*
X268200D01*
Y83400D02*
Y87600D01*
X260300Y12900D02*
Y17100D01*
Y12900D02*
X267700D01*
Y17100D01*
X260300D02*
X267700D01*
X70300Y58100D02*
X77700D01*
Y53900D02*
Y58100D01*
X70300Y53900D02*
X77700D01*
X70300D02*
Y58100D01*
X77700Y58900D02*
Y63100D01*
X70300D02*
X77700D01*
X70300Y58900D02*
Y63100D01*
Y58900D02*
X77700D01*
X48800Y83900D02*
Y88100D01*
Y83900D02*
X56200D01*
Y88100D01*
X48800D02*
X56200D01*
X87800Y78400D02*
X95200D01*
X87800D02*
Y82600D01*
X95200D01*
Y78400D02*
Y82600D01*
X54400Y32700D02*
X58600D01*
Y40100D01*
X54400D02*
X58600D01*
X54400Y32700D02*
Y40100D01*
X59900Y18600D02*
Y26000D01*
X55700Y18600D02*
X59900D01*
X55700D02*
Y26000D01*
X59900D01*
X50700D02*
X54900D01*
X50700Y18600D02*
Y26000D01*
Y18600D02*
X54900D01*
Y26000D01*
X243800Y83400D02*
Y87600D01*
Y83400D02*
X251200D01*
Y87600D01*
X243800D02*
X251200D01*
X252300Y83400D02*
X259700D01*
X252300D02*
Y87600D01*
X259700D01*
Y83400D02*
Y87600D01*
X162900Y16800D02*
X167100D01*
Y24200D01*
X162900D02*
X167100D01*
X162900Y16800D02*
Y24200D01*
X146500Y45750D02*
Y54250D01*
X133500Y45750D02*
X146500D01*
X133500Y54250D02*
X146500D01*
X133500Y45750D02*
Y54250D01*
X66700Y48800D02*
Y53200D01*
Y48800D02*
X74300D01*
X66700Y53200D02*
X74300D01*
X176800Y83800D02*
X181200D01*
X176800Y76200D02*
Y83800D01*
Y76200D02*
X181200D01*
Y83800D01*
X176800Y16700D02*
X181200D01*
Y24300D01*
X176800D02*
X181200D01*
X176800Y16700D02*
Y24300D01*
X175500Y80000D02*
Y85100D01*
X170500D02*
X175500D01*
X170500Y75800D02*
Y85100D01*
Y75800D02*
X175500D01*
Y80000D01*
X170500Y15400D02*
Y20500D01*
Y15400D02*
X175500D01*
Y24700D01*
X170500D02*
X175500D01*
X170500Y20500D02*
Y24700D01*
X95300Y83300D02*
Y87700D01*
X87700D02*
X95300D01*
X87700Y83300D02*
Y87700D01*
Y83300D02*
X95300D01*
X33250Y59000D02*
X41750D01*
Y41000D02*
Y59000D01*
X33250Y41000D02*
X41750D01*
X33250D02*
Y59000D01*
X38800Y21700D02*
X43200D01*
Y29300D01*
X38800D02*
X43200D01*
X38800Y21700D02*
Y29300D01*
X38900Y17299D02*
X43300D01*
X38900Y9699D02*
Y17299D01*
Y9699D02*
X43300D01*
Y17299D01*
X30800Y12900D02*
X31925D01*
X30700Y13000D02*
X30800Y12900D01*
X30700D02*
Y19100D01*
X34175Y12900D02*
X35300D01*
Y19100D01*
X31925Y12900D02*
X34175D01*
X34075Y19100D02*
X35200D01*
X31825D02*
X34075D01*
X30700D02*
X31825D01*
X34075Y25100D02*
X35200D01*
X35300Y25000D01*
Y18900D02*
Y25100D01*
X30700D02*
X31825D01*
X30700Y18900D02*
Y25100D01*
X31825D02*
X34075D01*
X30800Y18900D02*
X31925D01*
X34175D01*
X35300D01*
X29900Y38075D02*
Y39200D01*
X30000Y39300D01*
X29900D02*
X36100D01*
X29900Y34700D02*
Y35825D01*
Y34700D02*
X36100D01*
X29900Y35825D02*
Y38075D01*
X36100Y34800D02*
Y35925D01*
Y38175D01*
Y39300D01*
X162800Y25499D02*
X167200D01*
Y33099D01*
X162800D02*
X167200D01*
X162800Y25499D02*
Y33099D01*
X193200Y82800D02*
Y87200D01*
Y82800D02*
X200800D01*
Y87200D01*
X193200D02*
X200800D01*
X217800Y12800D02*
Y17200D01*
X210200D02*
X217800D01*
X210200Y12800D02*
Y17200D01*
Y12800D02*
X217800D01*
X193200Y77800D02*
Y82200D01*
Y77800D02*
X200800D01*
Y82200D01*
X193200D02*
X200800D01*
X189300Y49200D02*
Y53600D01*
Y49200D02*
X196900D01*
X189300Y53600D02*
X196900D01*
X189298Y42500D02*
Y46900D01*
Y42500D02*
X196898D01*
X189298Y46900D02*
X196898D01*
X200300Y49200D02*
Y53600D01*
X192700D02*
X200300D01*
X192700Y49200D02*
X200300D01*
Y42500D02*
Y46900D01*
X192700D02*
X200300D01*
X192700Y42500D02*
X200300D01*
X43600Y57599D02*
Y54266D01*
X44266Y53600D01*
X45599D01*
X46266Y54266D01*
Y57599D01*
X50265Y56932D02*
X49598Y57599D01*
X48265D01*
X47599Y56932D01*
Y56266D01*
X48265Y55599D01*
X49598D01*
X50265Y54933D01*
Y54266D01*
X49598Y53600D01*
X48265D01*
X47599Y54266D01*
X51597Y57599D02*
Y53600D01*
X53597D01*
X54263Y54266D01*
Y54933D01*
X53597Y55599D01*
X51597D01*
X53597D01*
X54263Y56266D01*
Y56932D01*
X53597Y57599D01*
X51597D01*
X55596Y53600D02*
X56929D01*
X56263D01*
Y57599D01*
X55596Y56932D01*
X170600Y73599D02*
Y70266D01*
X171266Y69600D01*
X172599D01*
X173266Y70266D01*
Y73599D01*
X177264Y72932D02*
X176598Y73599D01*
X175265D01*
X174599Y72932D01*
Y72266D01*
X175265Y71599D01*
X176598D01*
X177264Y70933D01*
Y70266D01*
X176598Y69600D01*
X175265D01*
X174599Y70266D01*
X181263Y73599D02*
X178597D01*
Y69600D01*
X181263D01*
X178597Y71599D02*
X179930D01*
X182596Y69600D02*
Y73599D01*
X184596D01*
X185262Y72932D01*
Y71599D01*
X184596Y70933D01*
X182596D01*
X183929D02*
X185262Y69600D01*
X170600Y26600D02*
Y30599D01*
X172599D01*
X173266Y29932D01*
Y28599D01*
X172599Y27933D01*
X170600D01*
X176598Y30599D02*
X175265D01*
X174599Y29932D01*
Y27266D01*
X175265Y26600D01*
X176598D01*
X177264Y27266D01*
Y29932D01*
X176598Y30599D01*
X178597D02*
Y26600D01*
X179930Y27933D01*
X181263Y26600D01*
Y30599D01*
X185262D02*
X182596D01*
Y26600D01*
X185262D01*
X182596Y28599D02*
X183929D01*
X186595Y26600D02*
Y30599D01*
X188594D01*
X189261Y29932D01*
Y28599D01*
X188594Y27933D01*
X186595D01*
X187928D02*
X189261Y26600D01*
X124672Y60599D02*
Y56600D01*
X126671D01*
X127337Y57266D01*
Y57933D01*
X126671Y58599D01*
X124672D01*
X126671D01*
X127337Y59266D01*
Y59932D01*
X126671Y60599D01*
X124672D01*
X130670D02*
X129337D01*
X128670Y59932D01*
Y57266D01*
X129337Y56600D01*
X130670D01*
X131336Y57266D01*
Y59932D01*
X130670Y60599D01*
X134668D02*
X133335D01*
X132669Y59932D01*
Y57266D01*
X133335Y56600D01*
X134668D01*
X135335Y57266D01*
Y59932D01*
X134668Y60599D01*
X136668D02*
X139333D01*
X138001D01*
Y56600D01*
X140666D02*
X143332Y59266D01*
X144665Y60599D02*
Y57266D01*
X145332Y56600D01*
X146665D01*
X147331Y57266D01*
Y60599D01*
X151330Y59932D02*
X150663Y60599D01*
X149330D01*
X148664Y59932D01*
Y59266D01*
X149330Y58599D01*
X150663D01*
X151330Y57933D01*
Y57266D01*
X150663Y56600D01*
X149330D01*
X148664Y57266D01*
X152663Y56600D02*
Y60599D01*
X154662D01*
X155328Y59932D01*
Y58599D01*
X154662Y57933D01*
X152663D01*
X153996D02*
X155328Y56600D01*
X130670Y38600D02*
Y42599D01*
X132669D01*
X133335Y41932D01*
Y40599D01*
X132669Y39933D01*
X130670D01*
X132003D02*
X133335Y38600D01*
X137334Y42599D02*
X134668D01*
Y38600D01*
X137334D01*
X134668Y40599D02*
X136001D01*
X141333Y41932D02*
X140666Y42599D01*
X139333D01*
X138667Y41932D01*
Y41266D01*
X139333Y40599D01*
X140666D01*
X141333Y39933D01*
Y39266D01*
X140666Y38600D01*
X139333D01*
X138667Y39266D01*
X145332Y42599D02*
X142666D01*
Y38600D01*
X145332D01*
X142666Y40599D02*
X143999D01*
X146665Y42599D02*
X149330D01*
X147997D01*
Y38600D01*
X120600Y47600D02*
Y51599D01*
X122599D01*
X123266Y50932D01*
Y49599D01*
X122599Y48933D01*
X120600D01*
X121933D02*
X123266Y47600D01*
X127264Y51599D02*
X124599D01*
Y47600D01*
X127264D01*
X124599Y49599D02*
X125932D01*
X131263Y50932D02*
X130597Y51599D01*
X129264D01*
X128597Y50932D01*
Y48266D01*
X129264Y47600D01*
X130597D01*
X131263Y48266D01*
Y49599D01*
X129930D01*
X148600Y50932D02*
X149267Y51599D01*
X150599D01*
X151266Y50932D01*
Y50266D01*
X150599Y49599D01*
X149933D01*
X150599D01*
X151266Y48933D01*
Y48266D01*
X150599Y47600D01*
X149267D01*
X148600Y48266D01*
X152599Y51599D02*
Y48933D01*
X153932Y47600D01*
X155264Y48933D01*
Y51599D01*
X156597Y50932D02*
X157264Y51599D01*
X158597D01*
X159263Y50932D01*
Y50266D01*
X158597Y49599D01*
X157930D01*
X158597D01*
X159263Y48933D01*
Y48266D01*
X158597Y47600D01*
X157264D01*
X156597Y48266D01*
X43600Y45599D02*
Y42266D01*
X44266Y41600D01*
X45599D01*
X46266Y42266D01*
Y45599D01*
X50265Y44932D02*
X49598Y45599D01*
X48265D01*
X47599Y44932D01*
Y44266D01*
X48265Y43599D01*
X49598D01*
X50265Y42933D01*
Y42266D01*
X49598Y41600D01*
X48265D01*
X47599Y42266D01*
X51597Y45599D02*
Y41600D01*
X53597D01*
X54263Y42266D01*
Y42933D01*
X53597Y43599D01*
X51597D01*
X53597D01*
X54263Y44266D01*
Y44932D01*
X53597Y45599D01*
X51597D01*
X58262Y41600D02*
X55596D01*
X58262Y44266D01*
Y44932D01*
X57595Y45599D01*
X56263D01*
X55596Y44932D01*
X43600Y49599D02*
X46266D01*
X44933Y50932D02*
Y48266D01*
X50265Y51599D02*
X47599D01*
Y49599D01*
X48932Y50266D01*
X49598D01*
X50265Y49599D01*
Y48266D01*
X49598Y47600D01*
X48265D01*
X47599Y48266D01*
X51597Y51599D02*
Y48933D01*
X52930Y47600D01*
X54263Y48933D01*
Y51599D01*
X6266Y46599D02*
X3600D01*
Y42600D01*
X6266D01*
X3600Y44599D02*
X4933D01*
X10265Y45932D02*
X9598Y46599D01*
X8265D01*
X7599Y45932D01*
Y45266D01*
X8265Y44599D01*
X9598D01*
X10265Y43933D01*
Y43266D01*
X9598Y42600D01*
X8265D01*
X7599Y43266D01*
X11597Y42600D02*
Y46599D01*
X13597D01*
X14263Y45932D01*
Y44599D01*
X13597Y43933D01*
X11597D01*
X3600Y57599D02*
Y54266D01*
X4266Y53600D01*
X5599D01*
X6266Y54266D01*
Y57599D01*
X7599Y53600D02*
Y56266D01*
X8932Y57599D01*
X10265Y56266D01*
Y53600D01*
Y55599D01*
X7599D01*
X11597Y53600D02*
Y57599D01*
X13597D01*
X14263Y56932D01*
Y55599D01*
X13597Y54933D01*
X11597D01*
X12930D02*
X14263Y53600D01*
X15596Y57599D02*
X18262D01*
X16929D01*
Y53600D01*
X234266Y15599D02*
X232933D01*
X233599D01*
Y12267D01*
X232933Y11600D01*
X232266D01*
X231600Y12267D01*
X238264Y11600D02*
X235599D01*
X238264Y14266D01*
Y14932D01*
X237598Y15599D01*
X236265D01*
X235599Y14932D01*
X234266Y87599D02*
X232933D01*
X233599D01*
Y84266D01*
X232933Y83600D01*
X232266D01*
X231600Y84266D01*
X235599Y83600D02*
X236932D01*
X236265D01*
Y87599D01*
X235599Y86932D01*
X30200Y53300D02*
X31533D01*
X30866D01*
Y57299D01*
X30200Y56632D01*
D12*
X128878Y63189D02*
X151122D01*
X128189Y70177D02*
Y79823D01*
X128878Y86811D02*
X151122D01*
X151811Y70177D02*
Y79823D01*
X113258Y74891D02*
X115817D01*
Y77746D01*
X113258Y86309D02*
X115817D01*
Y83454D02*
Y86309D01*
X113158Y60591D02*
X115717D01*
Y63446D01*
X113158Y72009D02*
X115717D01*
Y69154D02*
Y72009D01*
X11779Y95492D02*
X16701D01*
X-2689D02*
X165D01*
X-2689Y59508D02*
Y95492D01*
X11779Y59508D02*
X16701D01*
X-2689D02*
X165D01*
X-2689Y4008D02*
X165D01*
X11779D02*
X16701D01*
X-2689D02*
Y39992D01*
X165D01*
X11779D02*
X16701D01*
X63126Y69126D02*
Y71095D01*
Y69126D02*
X65095D01*
X78874D02*
Y71095D01*
X76906Y69126D02*
X78874D01*
X63126Y82906D02*
Y84874D01*
X65095D01*
X78874Y82906D02*
Y84874D01*
X76906D02*
X78874D01*
X69926Y15811D02*
Y42189D01*
X85280Y15811D02*
Y42189D01*
X69926D02*
X85280D01*
X69926Y15811D02*
X85280D01*
X151811Y20177D02*
Y29823D01*
X128878Y36811D02*
X151122D01*
X128189Y20177D02*
Y29823D01*
X128878Y13189D02*
X151122D01*
D13*
X290236Y19646D02*
Y80276D01*
X270354Y19646D02*
X290236D01*
X209528D02*
Y80276D01*
X270354D02*
X290236D01*
D14*
X173000Y84650D02*
D03*
Y15850D02*
D03*
M02*
