M48
;Layer_Color=9474304
;FILE_FORMAT=2:5
INCH,LZ
;TYPE=PLATED
T01F00S00C0.01200
T03F00S00C0.02800
T04F00S00C0.04000
%
T01
X025268Y0026676
X02561Y00273
X026299Y0026526
Y0029872
Y0033219
Y0036565
Y0039911
Y0043258
Y0046604
Y0049951
X0251382Y0049917
Y0043421
X0264597Y0018316
X0246624Y0026911
X0239931
X0233238
X0226545
X0219852
X0223179Y0032392
X0229872
X0236565
X0243258
X0249951
X0239898Y003852
X02367Y00467
X02432
X02285Y0043508
X0216486Y0032392
X0206692Y0022411
X0198352Y0029911
X019107Y002973
X01886Y00379
X01815Y0037
X01753Y00379
X0183Y0044847
X01871Y00459
X02017Y00447
X02052Y0045047
X01981Y00382
X01557Y00399
X0162272Y00148
X0169Y002
X01239Y00406
X01166Y00397
X01118
X01068
X0102
X00971
X0097Y00335
X01019
X01067
X01117
X01165
X01166Y00465
X01118
X01068
X0102
X00971
X00795Y00475
X00613Y00499
X00578Y00291
X00533
X00488
X00462Y00329
X00446Y00259
X004579Y002099
X00458Y0017
X00449Y00133
X00495Y00159
X00537Y00158
X00579
X00732Y00168
X00767Y00202
X00835Y00199
X00852Y00166
X0036555Y0014746
X0036475Y0022725
X0029473Y0009427
X00282Y00386
X00307Y00415
X003245Y005685
X0027584Y00625
X00314Y00777
X00354Y00779
X0037Y00734
X0043436Y0071928
X00452Y00691
X0046Y00741
Y00781
X00437Y00808
X00469Y00859
X003657Y00865
X0029898Y0090098
X00702Y00885
X0075Y00884
X00729Y00792
X00689
Y00747
X00729
X00724Y00653
X00786Y00582
X00784Y00541
X00645Y00547
X00618Y00685
X00486Y00584
X0089882Y00726
X00828Y00844
X00971Y00874
X00976Y00814
X0095Y00608
X00949Y00561
X01484Y00523
X01512Y00601
X01572Y0061
X01608Y00621
X01663Y00602
X01719Y00621
X01764Y00622
X01812Y00633
X01866Y00634
X01865Y00709
X01921Y00736
X01924Y00668
X0181578Y00766
X01668Y00792
X015565Y007905
X01325Y00828
X020439Y0075621
X0216526Y007301
X0223218
X0229911
X0236604
X0243297
X024Y00675
X0239984Y0061402
X02432Y00532
X02367
X02285Y0050004
Y00565
X0226585Y0067529
X0219892
X0233278
X0246678Y0067515
X02462Y00895
X02053Y00513
X02017Y00514
X01872Y00502
X01831Y00511
X0251382Y0056413
X026299Y0056644
Y0053297
Y005999
Y0063337
Y0066683
Y0070029
Y0073376
X02593Y00732
X02598Y00819
X02543Y00887
X02506Y00888
X025Y0073
T03
X00375Y0045
Y005
Y0055
X01375Y005
X01425
T04
X0255Y0005
X0265
X0245
X0235
X0225
X0215
X0205
X0195
X0185
X0175
X0165
X0155
X0145
X0135
X0125
X0115
X0105
X0095
X0085
X0075
X0065
X0055
X0045
X0035
Y0095
X0045
X0055
X0065
X0075
X0085
X0095
X0105
X0115
X0125
X0135
X0145
X0155
X0165
X0175
X0185
X0195
X0205
X0215
X0225
X0235
X0245
X0255
X0265
M30
